<?xml version="1.0" standalone="no"?>
<!DOCTYPE svg PUBLIC "-//W3C//DTD SVG 1.1//EN" "http://www.w3.org/Graphics/SVG/1.1/DTD/svg11.dtd" >
<svg xmlns="http://www.w3.org/2000/svg">
<metadata>
Created by FontPrep 20130207 at Sat Aug 30 12:51:24 2014
 By Luke Phillips
Copyright (c) 1990 Adobe Systems Incorporated. All Rights Reserved.ITC Century is a registered trademark of International Typeface Corporation.
</metadata>
<defs>
<font id="d28eac7d25d1920e355c212ab72c3d40" horiz-adv-x='1024' >
  <font-face 
    font-family="CenturyLT-BookItalic"
    font-weight="400"
    font-style="italic"
    font-stretch="normal"
    units-per-em="2048"
    panose-1="2 0 5 3 8 0 0 9 0 4"
    ascent="1638"
    descent="-410"
    x-height="987"
    cap-height="1409"
    bbox="-434 -434 2054 1874"
    underline-thickness="102"
    underline-position="-153"
    slope="-16"
    unicode-range="U+0020-FB02"
  />
<missing-glyph horiz-adv-x="569" 
 />
    <glyph glyph-name=".notdef" horiz-adv-x="569" 
 />
    <glyph glyph-name=".null" horiz-adv-x="0" 
 />
    <glyph glyph-name="nonmarkingreturn" horiz-adv-x="569" 
 />
    <glyph glyph-name="space" unicode=" " horiz-adv-x="569" 
 />
    <glyph glyph-name="space" unicode="&#xa0;" horiz-adv-x="569" 
 />
    <glyph glyph-name="exclam" unicode="!" horiz-adv-x="681" 
d="M505 1384q56 0 86 -32.5t30 -81.5t-10.5 -88t-31 -85t-101 -210.5t-181.5 -497.5h-70q76 339 133 815q10 74 49.5 127t95.5 53zM70 102.5q0 49.5 34.5 82t84 32.5t84 -32.5t34.5 -82t-34.5 -82t-86.5 -32.5t-84 32.5t-32 82z" />
    <glyph glyph-name="quotedbl" unicode="&#x22;" horiz-adv-x="681" 
d="M586 850l-37 444q-11 140 71 140q38 0 56 -35t14 -86l-39 -463q-7 -64 -33 -64q-25 0 -32 64zM325 1434q38 0 56 -35t14 -86l-39 -463q-7 -64 -33 -64t-32 64l-37 444q-12 140 71 140z" />
    <glyph glyph-name="numbersign" unicode="#" 
d="M1038 451h-223l-63 -451h-115l65 451h-276l-64 -451h-114l65 451h-225v102h240l43 303h-226v102h240l64 451h114l-65 -451h276l64 451h114l-65 -451h209v-102h-224l-43 -303h209v-102zM483 856l-43 -303h277l43 303h-277z" />
    <glyph glyph-name="dollar" unicode="$" 
d="M1051 1164q0 -126 -105 -126q-51 0 -77.5 29t-26.5 65t10 54t22.5 29.5t22.5 18.5t10 16t-27.5 27.5t-84.5 22.5l-119 -460q117 -75 185.5 -157t68.5 -228t-125.5 -266t-329.5 -132l-49 -192h-78l49 192q-146 12 -227.5 90.5t-81.5 176.5q0 59 35 107t94 48t87 -31.5
t28 -73.5t-20.5 -62.5t-46 -31t-46 -17.5t-20.5 -34t62.5 -66.5t150.5 -43.5l143 557q-107 67 -165 143t-58 214q0 137 118.5 231t282.5 98l37 149h78l-37 -151q115 -14 177.5 -74t62.5 -122zM782 391q0 92 -47 144.5t-112 97.5l-131 -510q133 14 211.5 95t78.5 173z
M479 1059q0 -55 37 -95t92 -79l109 415q-98 -10 -168 -69.5t-70 -171.5z" />
    <glyph glyph-name="percent" unicode="%" horiz-adv-x="1366" 
d="M251 594q-99 0 -160.5 72.5t-61.5 190.5t37.5 213t100 170t140.5 122t171 47t154.5 -79t61.5 -214q0 -84 -31.5 -176t-89 -169t-140.5 -127t-182 -50zM970 0q-99 0 -160.5 72.5t-61.5 190.5t37.5 213t100 170t140.5 122t171 47t154.5 -79t61.5 -214q0 -84 -31.5 -176
t-89 -169t-140.5 -127t-182 -50zM866 209q0 -156 117 -156q93 0 180.5 128.5t109 263.5t21.5 196q0 121 -104 121q-72 0 -131.5 -61.5t-102.5 -148.5t-66.5 -182.5t-23.5 -160.5zM147 803q0 -156 117 -156q93 0 180.5 128.5t109 263.5t21.5 196q0 121 -104 121
q-72 0 -131 -61.5t-102 -148.5t-67 -182.5t-24 -160.5zM1133 1434h98l-914 -1459h-94z" />
    <glyph glyph-name="ampersand" unicode="&#x26;" horiz-adv-x="1593" 
d="M500 996q0 185 124.5 311.5t282.5 126.5t248 -79.5t90 -185.5q0 -107 -101.5 -197t-381.5 -194q27 -61 94.5 -229.5t132.5 -255.5q55 74 83 137.5t46 109.5t52 127q62 150 184 150q57 0 91 -31.5t34 -79.5t-31 -77t-67 -29t-52 9t-27.5 20.5t-19.5 20.5t-17 9
q-15 0 -55 -97q-39 -97 -75.5 -170t-112.5 -163q35 -55 75 -95t92 -40t84 21.5t56.5 52.5t43 64.5t32.5 56.5l55 -29q-96 -209 -208.5 -247t-155.5 -38q-74 0 -114.5 26.5t-111.5 94.5q-176 -121 -391 -121q-162 0 -283.5 105t-121.5 266q0 111 55 181.5t132 116.5t157 75
t127 55q-45 133 -45 222zM375 149.5q76 -88.5 214 -88.5t245 91q-88 127 -152 274t-117 283q-136 -60 -201 -132.5t-65 -205.5t76 -221.5zM1085 1163q0 100 -51 154.5t-132 54.5t-147.5 -73.5t-66.5 -206.5q0 -134 49 -248q170 53 259 136t89 183z" />
    <glyph glyph-name="quotesingle" unicode="'" horiz-adv-x="454" 
d="M320 1434q38 0 56.5 -35t14.5 -86l-39 -463q-7 -64 -33 -64t-32 64l-37 444q-12 140 70 140z" />
    <glyph glyph-name="parenleft" unicode="(" horiz-adv-x="909" 
d="M127 299q0 174 55.5 349t145.5 320.5t203 252t219 152.5t175.5 53.5t141.5 7.5l-12 -54q-234 0 -396 -159q-162 -162 -263 -481.5t-101 -570.5t64 -361t229 -144l-13 -53q-198 21 -323 194t-125 494z" />
    <glyph glyph-name="parenright" unicode=")" horiz-adv-x="909" 
d="M725 745q0 -175 -55.5 -349.5t-145.5 -320t-203 -252t-219 -152.5t-175.5 -53t-141.5 -7l12 53q233 0 396 160q162 162 263 481t101 571t-65 362t-228 142l12 54q198 -21 323.5 -194.5t125.5 -494.5z" />
    <glyph glyph-name="asterisk" unicode="*" horiz-adv-x="909" 
d="M392 1001q44 0 104 9v22q-53 61 -104.5 90t-91.5 47.5t-63.5 37t-23.5 54.5t22.5 61.5t60.5 25.5t58.5 -26t39 -68t46 -94t88.5 -107l19 6q26 73 26 138q0 64 -7 98t-7 64t23.5 52.5t68.5 22.5t62.5 -25t17.5 -51t-18.5 -56t-64 -99t-66.5 -156l12 -11q89 0 151 32
t91.5 46t85 14t55.5 -71q0 -82 -92 -82q-41 0 -82 14.5t-100 14.5t-103 -7v-22q55 -61 106.5 -90t91.5 -47.5t63.5 -37t23.5 -60.5t-28.5 -61.5t-62.5 -19.5t-53.5 26t-37 68t-45 94t-89.5 107l-18 -6q-27 -79 -27 -142q0 -62 7.5 -96t7.5 -63t-23.5 -51.5t-63.5 -22.5
t-62.5 25t-22.5 47t18 52t64 101.5t67 162.5l-12 10q-90 0 -151.5 -32t-91.5 -46t-85 -14t-55 71q0 82 92 82q39 0 87 -15.5t92 -15.5z" />
    <glyph glyph-name="plus" unicode="+" horiz-adv-x="1228" 
d="M516 963h111v-426h426v-111h-426v-426h-111v426h-426v111h426v426z" />
    <glyph glyph-name="comma" unicode="," horiz-adv-x="569" 
d="M207 -67.5q0 24.5 -14 26.5q-144 30 -144 139q0 59 35.5 95t99.5 36t103 -49.5t39 -147.5t-51.5 -200t-188.5 -221l-47 45q142 131 155 191.5t13 85z" />
    <glyph glyph-name="hyphen" unicode="-" horiz-adv-x="681" 
d="M92 545h483l-36 -127h-484z" />
    <glyph glyph-name="hyphen" unicode="&#xad;" horiz-adv-x="681" 
d="M92 545h483l-36 -127h-484z" />
    <glyph glyph-name="period" unicode="." horiz-adv-x="569" 
d="M57 102.5q0 49.5 35 82t84 32.5t84 -32.5t35 -82t-35 -82t-84 -32.5t-84 32.5t-35 82z" />
    <glyph glyph-name="slash" unicode="/" horiz-adv-x="569" 
d="M-135 -25l803 1459h110l-803 -1459h-110z" />
    <glyph glyph-name="zero" unicode="0" 
d="M72 508q0 108 25.5 208.5t96.5 259.5t228 308.5t323 149.5t273.5 -141.5t107.5 -418.5q0 -175 -94.5 -386t-252.5 -362t-349 -151q-154 0 -228.5 107.5t-102 212.5t-27.5 213zM950 1112q0 260 -188 260q-148 0 -266 -206t-183 -470.5t-65 -401.5q0 -136 52 -196.5
t139 -60.5t164 72.5t155.5 223t135 413.5t56.5 366z" />
    <glyph glyph-name="one" unicode="1" 
d="M590 154q0 -50 46 -71.5t179 -21.5l-12 -61h-703l15 61q150 8 193.5 33t60 48.5t24.5 54.5l269 999h-240l14 74q115 6 211 38.5t201 100.5h67q-6 -20 -22 -83.5t-40 -153t-53.5 -196t-58 -217t-56.5 -214t-61.5 -237t-33.5 -154.5z" />
    <glyph glyph-name="two" unicode="2" 
d="M113 66q0 -66 -78 -66t-78 74q0 39 40 140t593 445q315 196 315 488q0 111 -60.5 168t-156.5 57q-175 0 -294.5 -123t-119.5 -256q0 -61 29 -93t76 -32q88 0 153.5 75t92.5 210l59 -18q-17 -131 -100.5 -229.5t-184.5 -98.5q-102 0 -150 54t-48 136t40 162t147 177.5
t308 97.5t309.5 -95t108.5 -263t-139 -274t-249 -165t-221.5 -120.5t-216 -131.5t-179.5 -156l4 -4q97 62 168 62t118 -19.5t94.5 -42t94.5 -42t100 -19.5q84 0 148.5 75.5t115.5 200.5l56 -10q-110 -311 -227 -383t-194 -72t-136.5 36t-106.5 77t-87.5 77t-98.5 36t-58 -39
q0 -18 6.5 -42t6.5 -54z" />
    <glyph glyph-name="three" unicode="3" 
d="M106 248q-18 0 -18 -27q0 -62 81.5 -123t188.5 -61q193 0 310.5 131t117.5 311q0 96 -38 154.5t-76 58.5q-20 0 -65.5 -12t-90.5 -12t-57.5 9.5t-12.5 29.5q0 34 74 34l135 -8q39 0 84 29t107.5 111t62.5 245q0 254 -233 254q-128 0 -236 -98t-108 -246q0 -47 28 -80
t88 -33t116.5 55.5t117.5 186.5l49 -24q-76 -195 -162 -237t-132 -42q-83 0 -131 56.5t-48 132.5q0 75 38 150t137.5 158t281.5 83t292.5 -93.5t110.5 -218.5t-48 -198.5t-112.5 -116.5t-127 -62.5t-93.5 -31.5v-4q18 -6 59.5 -19.5t116 -69t74.5 -210.5q0 -183 -167.5 -309
t-438.5 -126q-160 0 -263.5 87t-103.5 190q0 132 59.5 166.5t107.5 34.5t80 -30t32 -77t-34 -78.5t-72 -31.5t-50.5 6t-30.5 6z" />
    <glyph glyph-name="four" unicode="4" 
d="M68 367q-84 0 -84 61q0 35 32.5 60.5t118.5 25.5l103 -6q222 395 313 901h205q-21 -180 -170.5 -451t-296.5 -458q49 -14 189 -64.5t165 -50.5l182 676h179l-175 -680q98 0 154.5 55.5t81.5 81.5l33 -35q-47 -84 -126 -139t-171 -78l-103 -381h-176l94 377
q-59 0 -103 21.5t-85 51.5t-81 62.5t-89 55.5q-45 -23 -95.5 -54.5t-94.5 -31.5z" />
    <glyph glyph-name="five" unicode="5" 
d="M440 1409q417 -57 678 25l21 -58q-102 -98 -237.5 -149t-274.5 -51q-58 0 -187 12l-135 -391l4 -4q106 137 305 137q160 0 272.5 -119t112.5 -293q0 -104 -40.5 -202.5t-167 -219.5t-396.5 -121q-175 0 -265.5 83.5t-90.5 205.5q0 82 42 125t97 43t87 -27.5t32 -78.5
q0 -111 -117 -111l-43 4q-12 1 -12 -21q0 -51 73 -106t169 -55q186 0 305 156.5t119 416.5q0 127 -53.5 192.5t-148.5 65.5t-181 -57t-146 -152l-65 41z" />
    <glyph glyph-name="six" unicode="6" 
d="M1036 514q0 -98 -42 -200.5t-154.5 -220.5t-311.5 -118t-298 153t-99 404q0 174 65.5 337t169 288t228.5 201t248 76t189.5 -67t66.5 -133q0 -65 -33 -100.5t-89 -35.5t-88 29.5t-32 79.5t35 75t76 25q12 0 12 12t-30.5 32.5t-135 20.5t-229 -136.5t-195.5 -426.5l4 -4
q31 60 120 109t169 49t147.5 -37t113.5 -98.5t69.5 -138.5t23.5 -175zM291 326q0 -289 221 -289q154 0 239 178t85 453q0 102 -46.5 167.5t-128.5 65.5q-147 0 -258.5 -191.5t-111.5 -383.5z" />
    <glyph glyph-name="seven" unicode="7" 
d="M569 41q1 -66 -107 -66q-54 0 -90 38t-36 135q0 173 98 320.5t229 278.5t236 237t209 210l-4 4q-112 -55 -248 -55q-84 0 -147.5 39t-96 57t-80 18t-127 -100.5t-143.5 -245.5h-67l157 478h70l-82 -228l4 -4q101 182 195 229.5t150 47.5t105.5 -32t91.5 -71t78.5 -70.5
t80.5 -31.5t76 17.5t32 35.5t-5 33.5t-5 44.5q0 57 59 57t60 -67q0 -47 -28 -80q-184 -219 -353 -408q-121 -136 -220.5 -363.5t-99.5 -379.5z" />
    <glyph glyph-name="eight" unicode="8" 
d="M289 1067q0 162 118.5 264.5t344.5 102.5q172 0 282.5 -84.5t110.5 -210.5q0 -188 -151.5 -262t-205.5 -99q117 -87 179.5 -175.5t62.5 -189.5q0 -188 -157.5 -313t-379.5 -125t-347.5 101t-125.5 250q0 220 183.5 306.5t288.5 125.5q-132 71 -167.5 166.5t-35.5 142.5z
M758 543.5q-84 81.5 -136.5 115t-86.5 54.5q-165 -68 -231 -124.5t-101 -115.5t-35 -132q0 -140 86 -222t235 -82t251 87.5t102 212.5t-84 206.5zM1006 1162q0 78 -66 144t-198 66t-212.5 -63t-80.5 -165t86 -188t186 -137q211 84 248 174.5t37 168.5z" />
    <glyph glyph-name="nine" unicode="9" 
d="M162 904q0 102 45 201t118.5 172t169 115t196.5 42q198 0 300.5 -150.5t102.5 -364.5q0 -213 -70 -382.5t-180.5 -294.5t-247 -196t-244.5 -71q-178 0 -244.5 69.5t-66.5 152.5q0 137 129 137q59 0 88 -34t29 -79t-16.5 -63.5t-37 -27.5t-37 -16.5t-16.5 -25.5t37 -34.5
t121 -16.5q170 0 298.5 155t201.5 443h-4q-64 -82 -134 -125t-165 -43t-160.5 31.5t-112.5 89t-73.5 136t-26.5 180.5zM350 758q0 -114 56 -172t132 -58q145 0 256 156.5t111 411.5q0 123 -57.5 199.5t-145.5 76.5t-150.5 -55t-106.5 -142.5t-69.5 -195t-25.5 -221.5z" />
    <glyph glyph-name="colon" unicode=":" horiz-adv-x="569" 
d="M47 102.5q0 49.5 34 82t83 32.5t85 -32.5t36 -82t-36 -82t-85 -32.5t-83 32.5t-34 82zM231 807q0 49 34 82t83 33t85 -33t36 -82t-36 -82t-85 -33t-83 33t-34 82z" />
    <glyph glyph-name="semicolon" unicode=";" horiz-adv-x="569" 
d="M186 -67.5q0 24.5 -14 26.5q-143 29 -143 139q0 59 34.5 95t99.5 36t103.5 -49.5t38.5 -147.5t-51 -200t-188 -221l-48 45q142 131 155 191.5t13 85zM231 807q0 49 34 82t83 33t85 -33t36 -82t-36 -82t-85 -33t-83 33t-34 82z" />
    <glyph glyph-name="less" unicode="&#x3c;" horiz-adv-x="1228" 
d="M113 539l1003 456v-121l-860 -393l860 -393v-121l-1003 459v113z" />
    <glyph glyph-name="equal" unicode="=" horiz-adv-x="1228" 
d="M1053 612h-963v111h963v-111zM1053 240h-963v110h963v-110z" />
    <glyph glyph-name="greater" unicode="&#x3e;" horiz-adv-x="1228" 
d="M1116 424l-1003 -457v121l860 393l-860 393v121l1003 -458v-113z" />
    <glyph glyph-name="question" unicode="?" horiz-adv-x="1024" 
d="M365 532q0 -81 92 -81q45 0 75.5 33.5t59.5 105.5l59 -29q-35 -88 -82 -130t-115 -42t-111.5 45.5t-43.5 105.5t20.5 96t64.5 72.5t112.5 80t138.5 89.5t96.5 69.5t48 63t21.5 107.5q0 109 -64.5 169.5t-133.5 60.5q-122 0 -195.5 -72.5t-73.5 -190.5q0 -59 28 -112
l-47 -27q-47 64 -47 143t25.5 135t72 97t110 64.5t181 23.5t225 -83.5t107.5 -225.5q0 -211 -248 -305q-329 -122 -352.5 -179t-23.5 -84zM193 102.5q0 49.5 34.5 82t83.5 32.5t84 -32.5t35 -82t-35 -82t-86 -32.5t-83.5 32.5t-32.5 82z" />
    <glyph glyph-name="at" unicode="@" horiz-adv-x="1638" 
d="M1104 453q0 -80 100 -80q58 0 113 42t111.5 139t56.5 255q0 92 -42 192.5t-122 184.5t-197.5 139t-255.5 55q-275 0 -446.5 -194.5t-171.5 -536.5q0 -239 174 -423.5t453 -184.5q176 0 275 43t144 63l27 -53q-104 -45 -211.5 -82t-232.5 -37q-207 0 -356.5 69t-247 173.5
t-143.5 225.5t-46 261t61.5 280t167 239.5t245.5 155t292 55.5t277.5 -47.5t220 -130t147.5 -197.5t53 -221q0 -208 -107.5 -369.5t-283.5 -161.5q-81 0 -128 44t-62 106h-4q-65 -76 -115.5 -113t-142.5 -37q-120 0 -154.5 96.5t-34.5 160.5t28.5 155.5t82 170.5t129.5 133
t159 54t115.5 -35.5t52.5 -74.5l23 82h143l-139 -535q-8 -28 -8 -61zM1053 846q0 76 -23.5 110.5t-75.5 34.5q-102 0 -197 -130t-95 -300q0 -74 33.5 -119t81.5 -45t96.5 38t88 102.5t65.5 148.5t26 160z" />
    <glyph glyph-name="A" unicode="A" horiz-adv-x="1366" 
d="M223 135q0 -68 185 -74l-13 -61h-538l14 61q177 21 253.5 124.5t104.5 152.5l619 1071h88l180 -1198q12 -87 43.5 -113.5t132.5 -36.5l-12 -61h-590l12 61q127 11 163 32.5t44.5 41t8.5 47.5t-13.5 93t-32.5 204h-477q-14 -29 -42.5 -78t-79 -139.5t-50.5 -126.5z
M446 553h416l-76 600h-4z" />
    <glyph glyph-name="B" unicode="B" horiz-adv-x="1366" 
d="M1370 1133q0 -362 -524 -383v-5q199 -10 305 -97t106 -260t-168.5 -280.5t-482.5 -107.5h-706l14 61q139 12 190.5 54.5t75.5 140.5l217 834q16 61 28.5 105t12.5 79t-34.5 54.5t-133.5 19.5l15 61h592q281 0 387 -60t106 -216zM354 131q0 -70 165 -70t257 30
q91 30 135.5 74t82.5 118.5t38 194.5t-65.5 179.5t-229.5 59.5h-235l-113 -443q-10 -37 -22.5 -72.5t-12.5 -70.5zM1145 1169q-1 179 -211 179q-168 0 -226 -37.5t-83 -132.5l-103 -387h283q151 0 245.5 95.5t94.5 282.5z" />
    <glyph glyph-name="C" unicode="C" horiz-adv-x="1366" 
d="M96 586q0 176 79 330.5t204 269t278 181.5t271 67t180.5 -21.5t103.5 -48.5t61.5 -48.5t31.5 -21.5q16 0 34.5 34t46.5 73h60l-123 -492l-51 -4q0 218 -64.5 336.5t-261.5 118.5q-145 0 -260 -78t-239.5 -280.5t-124.5 -583.5q0 -293 136 -331t221 -38q171 0 299 132
t193 339l72 -6q-61 -230 -217.5 -384.5t-380.5 -154.5q-233 0 -391 174.5t-158 436.5z" />
    <glyph glyph-name="D" unicode="D" horiz-adv-x="1478" 
d="M446 1274q0 35 -34.5 54.5t-132.5 19.5l16 61h670q137 0 227 -58.5t165 -176.5t75 -320q0 -279 -156.5 -504.5t-340 -287.5t-347.5 -62h-670l14 61q136 11 179 54t60 88t34 110l184 715q18 72 37.5 141.5t19.5 104.5zM1206 1001q0 195 -76 271t-240 76t-200.5 -62.5
t-48.5 -111.5l-197 -740q-10 -35 -20 -76t-26.5 -100t-16.5 -102t38.5 -69t158.5 -26q346 0 459.5 249.5t141 422t27.5 268.5z" />
    <glyph glyph-name="E" unicode="E" horiz-adv-x="1366" 
d="M1155 1267q-78 81 -264 81t-218 -62.5t-42 -101.5l-103 -398q176 -7 233.5 29.5t86.5 83.5t59 121h60l-142 -561h-57q0 90 -8 140t-36 74.5t-79 31t-137 8.5l-100 -385q-12 -45 -27.5 -96.5t-15.5 -88.5q0 -82 133 -82q252 0 400 109t241 346h67l-147 -516h-1143l14 61
q168 0 200 59.5t44 104.5l211 817q16 63 32.5 121.5t16.5 98.5t-30.5 60.5t-131.5 25.5l17 61h1122l-121 -500h-61l4 107q0 170 -78 251z" />
    <glyph glyph-name="F" unicode="F" horiz-adv-x="1251" 
d="M1162 1267q-75 81 -240 81t-216.5 -39.5t-84.5 -165.5l-93 -357q194 -4 252 32t85.5 82t58.5 120h59l-141 -561h-58q0 90 -9 140t-37.5 74.5t-83 31t-146.5 8.5l-72 -281q-71 -254 -71 -277q0 -48 42.5 -71t167.5 -23l-16 -61h-643l14 61q168 0 200 59.5t44 104.5
l211 817q16 63 32.5 121.5t16.5 98.5t-30.5 60.5t-131.5 25.5l17 61h1126l-121 -500h-61l4 107q0 170 -75 251z" />
    <glyph glyph-name="G" unicode="G" horiz-adv-x="1478" 
d="M1271 1303q11 0 64 106h62l-107 -512h-65q-4 246 -68.5 354.5t-215.5 108.5q-282 0 -454 -287.5t-172 -683.5q0 -177 88 -258.5t230 -81.5t247 123t105 320q0 53 -38 84.5t-146 31.5l14 62h631l-12 -62q-123 0 -171 -34t-73 -132l-111 -442h-63q-2 4 -7 20.5t-18 49
t-24 32.5q-10 0 -94.5 -63.5t-230.5 -63.5q-145 0 -241 52.5t-203.5 187.5t-107.5 371q0 170 75 323.5t194.5 270t268 185.5t311.5 69t242 -65.5t90 -65.5z" />
    <glyph glyph-name="H" unicode="H" horiz-adv-x="1593" 
d="M1268 1266q0 76 -178 82l14 61h622l-12 -61q-130 0 -182.5 -48t-91.5 -208l-195 -756q-14 -53 -31.5 -111.5t-17.5 -95.5t40 -54.5t146 -13.5l-14 -61h-639l14 61q140 0 179 25t55 59.5t31 90.5l120 481h-610l-84 -316q-23 -90 -40 -149t-17 -100t36 -66t142 -25l-12 -61
h-627l14 61q129 4 165 29t51.5 56.5t29.5 84.5l238 865q6 25 13 51.5t17.5 71t10.5 61.5q0 40 -32.5 54t-141.5 14l10 61h624l-12 -61q-72 0 -113.5 -6.5t-69.5 -28t-44.5 -60.5t-34.5 -102l-102 -360h610l76 280q16 66 29.5 118t13.5 77z" />
    <glyph glyph-name="I" unicode="I" horiz-adv-x="796" 
d="M461 1266q0 82 -164 82l16 61h592l-8 -61q-172 0 -199.5 -52.5t-35.5 -89.5l-181 -700q-12 -49 -27.5 -102.5t-38 -138.5t-22.5 -125t38 -62.5t147 -16.5l-17 -61h-610l20 61q153 -12 184 46.5t44 107.5l207 797q55 191 55 254z" />
    <glyph glyph-name="J" unicode="J" horiz-adv-x="1024" 
d="M56 254q-22 0 -21 -32q0 -71 52.5 -128t154.5 -57q209 0 262 239l196 799q37 162 37 186q0 49 -37 68t-149 19l14 61h596l-8 -61q-96 -4 -133 -23.5t-53.5 -44.5t-26.5 -63l-223 -887q-89 -355 -436 -355q-162 0 -247 84t-85 211q0 128 65.5 163.5t117.5 35.5t87 -29.5
t35 -119t-113 -89.5q-29 0 -46 11.5t-39 11.5z" />
    <glyph glyph-name="K" unicode="K" horiz-adv-x="1478" 
d="M954 152q0 33 -18 75l-203 492l-225 -182l-76 -299q-6 -23 -16 -53.5t-10 -55.5q0 -39 50 -53.5t146 -14.5l-12 -61h-662l15 61q127 0 185 39t75 105l243 923q29 102 29 138q0 37 -34.5 60.5t-141.5 21.5l14 61h631l-14 -61q-131 0 -169 -25t-57.5 -61.5t-35.5 -100.5
l-123 -485l4 -4l637 516q67 54 67 97t-26 53t-117 10l14 61h531l-8 -61q-113 -16 -200 -72.5t-169 -122.5l-365 -295l281 -688q31 -74 79 -91.5t128 -17.5l-10 -61h-652l15 61q200 0 200 91z" />
    <glyph glyph-name="L" unicode="L" horiz-adv-x="1251" 
d="M375 162q0 -101 130 -101q249 0 396 110.5t240 350.5l63 -6l-147 -516h-1147l14 61q127 4 167 23.5t52.5 39t20.5 48.5l248 926q30 117 30 152t-5 51t-33.5 31.5t-137.5 15.5l15 61h616l-10 -61q-133 0 -169 -25t-52.5 -59.5t-30.5 -92.5l-223 -843q-37 -136 -37 -166z
" />
    <glyph glyph-name="M" unicode="M" horiz-adv-x="1705" 
d="M436 1265q0 32 -29 61t-147 22l10 61h463l45 -1065h4l594 1065h473l-12 -61q-116 0 -163.5 -48t-80.5 -172l-196 -735q-14 -53 -24.5 -90t-21 -77t-10.5 -83q0 -44 35 -67t127 -19l-16 -57h-596l14 61q119 0 157 18.5t50 38t18 46.5l308 1167l-4 4l-756 -1335h-76
l-63 1319h-4l-246 -950q-16 -61 -32.5 -116.5t-16.5 -98.5q0 -95 182 -95l-12 -59h-508l14 61q160 5 197 65t47 99l223 830q18 72 35.5 125t17.5 85z" />
    <glyph glyph-name="N" unicode="N" horiz-adv-x="1478" 
d="M428 1253q0 89 -182 95l14 61h332l485 -1090h4l174 666q14 59 24.5 99t20 82.5t9.5 65.5q0 99 -170 116l14 61h473l-10 -61q-100 0 -153.5 -46.5t-80.5 -146.5l-307 -1155h-76l-514 1151h-4l-200 -776q-43 -148 -43 -202t39.5 -83t140.5 -29l-12 -61h-508l14 61
q102 10 159.5 44t78.5 104l221 809q20 72 38.5 136.5t18.5 98.5z" />
    <glyph glyph-name="O" unicode="O" horiz-adv-x="1478" 
d="M1423 800q0 -146 -69.5 -299t-185 -269.5t-262 -186.5t-278.5 -70q-245 0 -383.5 173.5t-138.5 470.5t205 507.5t352 259t251 48.5t198 -48.5t162.5 -131.5t108.5 -195.5t40 -258.5zM901 1360q-209 0 -341.5 -166.5t-192.5 -393t-60 -365.5q0 -138 26.5 -204.5t90.5 -124
t188 -57.5t209.5 49t181 162.5t158 333t62.5 391.5t-82 273.5t-240 101.5z" />
    <glyph glyph-name="P" unicode="P" horiz-adv-x="1251" 
d="M352 166q0 -105 193 -105l-13 -61h-638l14 61q126 12 160 35t48.5 51.5t26.5 73.5l232 877q37 136 37 158q0 46 -32.5 69t-127.5 23l14 61h561q394 0 442 -133t48 -220q0 -194 -163 -302.5t-527 -108.5h-154l-80 -299q-12 -47 -26.5 -101.5t-14.5 -78.5zM696 719
q201 0 298.5 97.5t97.5 338.5q0 79 -59 136t-167 57t-165.5 -29t-82.5 -123l-124 -477h202z" />
    <glyph glyph-name="Q" unicode="Q" horiz-adv-x="1478" 
d="M606 -25q-216 0 -358 179.5t-142 470.5t205 501.5t352 259t251 48.5t198 -48.5t202.5 -180t108.5 -387.5t-161.5 -476.5t-397.5 -312.5q22 -168 129 -168q81 0 125.5 82t59.5 112l45 -22q-104 -332 -349 -332q-98 0 -145 71.5t-53 207.5q-50 -5 -70 -5zM371 252
q0 76 53 133t152 57t176 -83t96 -248q120 72 225 261.5t127.5 366.5t22.5 236q0 182 -82 283.5t-240 101.5q-209 0 -341.5 -166.5t-192.5 -393t-60 -368.5q0 -141 27.5 -207.5t73.5 -109.5v4q-37 57 -37 133zM565 381q-129 0 -129 -152q0 -80 55.5 -130t129.5 -50q25 0 55 6
q12 99 12 175t-35 113.5t-88 37.5z" />
    <glyph glyph-name="R" unicode="R" horiz-adv-x="1366" 
d="M1044 220q0 -118 76 -118q44 0 76.5 58.5t45.5 93.5t22 55l59 -16q-51 -139 -100 -199.5t-100 -89.5t-133 -29t-134.5 58.5t-52.5 132.5t18.5 205t15.5 184q-3 54 -47.5 89.5t-146.5 35.5h-145l-88 -338q-14 -53 -28.5 -98t-14.5 -76q0 -62 40 -84.5t152 -22.5l-16 -61
h-649l16 61q132 4 187 53.5t89 172.5l213 823q29 114 29 148q0 35 -6 49t-34 27.5t-136 13.5l14 61h645q330 0 382.5 -134t52.5 -208q0 -154 -135 -256t-343 -102h-71v-4q133 -53 190 -152t57 -333zM1120 1114q0 221 -223 221q-119 0 -177 -24.5t-75 -81.5l-123 -467h232
q366 0 366 352z" />
    <glyph glyph-name="S" unicode="S" 
d="M143 514v-123q0 -190 90 -272t236 -82t254 76t108 227q0 80 -46 133t-114.5 94t-148.5 78t-148.5 83t-114.5 107.5t-46 204t143 268.5t371 126q186 0 253 -65.5t78 -65.5t22.5 14t22.5 32.5t19 36t13 23.5h65l-123 -512h-57v115q0 174 -76 267t-242 93q-116 0 -202 -70
t-86 -190q0 -76 46 -127t114.5 -92t148.5 -79t194.5 -121.5t114.5 -254.5q0 -199 -160 -331t-377 -132t-297 60.5t-94 60.5q-19 0 -50 -40.5t-36 -55.5h-69l137 514h57z" />
    <glyph glyph-name="T" unicode="T" horiz-adv-x="1251" 
d="M1233 920v108q0 182 -64.5 251t-244.5 69l-248 -955q-25 -96 -41.5 -154.5t-16.5 -86.5q0 -50 41.5 -72.5t147.5 -18.5l-16 -61h-646l17 61q129 4 172 31t62.5 57.5t31.5 77.5l295 1121q-283 0 -382 -163t-144 -261h-60l144 485h1134l-121 -489h-61z" />
    <glyph glyph-name="U" unicode="U" horiz-adv-x="1478" 
d="M1323 1246q0 62 -35 82t-135 20l8 61h475l-10 -61q-96 -4 -146.5 -35.5t-72.5 -122.5l-217 -819q-103 -396 -549 -396q-213 0 -342 104.5t-129 248.5q0 103 115.5 511.5t115.5 430.5q0 49 -34 63.5t-140 14.5l15 61h616l-12 -61q-123 0 -162 -20.5t-53.5 -47.5t-24.5 -66
l-188 -714q-47 -171 -47 -251.5t85.5 -140t206.5 -59.5q217 0 312.5 90.5t136.5 249.5l156 598q18 70 36.5 133.5t18.5 125.5z" />
    <glyph glyph-name="V" unicode="V" horiz-adv-x="1251" 
d="M1151 1264q0 71 -152 84l11 61h424l-13 -61q-73 0 -115.5 -49.5t-129.5 -206.5l-605 -1092h-98l-174 1149q-14 103 -46.5 151t-129.5 48l10 61h569l-8 -61q-80 0 -135 -29t-55 -74t8 -99t18 -134l95 -748l10 -2l416 782q100 185 100 220z" />
    <glyph glyph-name="W" unicode="W" horiz-adv-x="1705" 
d="M503 1308q-14 -40 -14 -85t11 -152l53 -711h4l369 781v94q0 53 -36 80.5t-118 32.5l14 61h512l-12 -61q-133 0 -146.5 -47t-13.5 -93t9 -118l53 -734h4l344 752q27 55 49.5 97t22.5 73t-28 47t-116 23l15 61h403l-14 -61q-92 -16 -126 -54.5t-59.5 -86.5t-62.5 -124
l-508 -1083h-84l-88 993h-4l-457 -993h-90l-100 1163q-12 116 -32.5 140t-47.5 31t-72 14l15 61h522l-10 -61q-147 0 -161 -40z" />
    <glyph glyph-name="X" unicode="X" horiz-adv-x="1366" 
d="M627 1267q0 -46 80 -243l65 -172l246 262q96 104 96 155q0 30 -29.5 54.5t-111.5 24.5l12 61h533l-13 -61q-164 4 -325 -168l-377 -402l217 -588q29 -74 69.5 -100.5t124.5 -28.5l-14 -61h-584l15 61q180 7 180 78q0 72 -41 170.5t-55 136.5l-70 185l-196 -225
q-29 -35 -64 -71t-84 -92.5t-49 -93.5t38 -60.5t142 -27.5l-14 -61h-563l10 61q198 44 270 125l481 523l-196 524q-25 63 -67 89t-136 26l10 61h588l-14 -61q-105 0 -133.5 -15.5t-34.5 -32t-6 -33.5z" />
    <glyph glyph-name="Y" unicode="Y" horiz-adv-x="1251" 
d="M543 1260q0 -34 8 -58t14 -51l117 -463l354 424q8 12 24.5 29.5t43 54.5t26.5 77t-29.5 57.5t-119.5 17.5l10 61h465l-12 -61q-68 -8 -119 -43t-111 -107l-505 -608l-80 -291q-29 -102 -29 -148.5t34.5 -66t147.5 -23.5l-16 -61h-610l12 61q120 8 157 31t51.5 48.5
t24.5 64.5l99 389l-166 684q-9 38 -38.5 54t-105.5 16l9 61h540l-12 -61q-86 6 -135 -24t-49 -64z" />
    <glyph glyph-name="Z" unicode="Z" horiz-adv-x="1251" 
d="M930 1335q-254 0 -351.5 -73.5t-149.5 -154.5t-105 -198h-62l139 500h930l-10 -37l-1055 -1298h68q311 0 436 75.5t188.5 158.5t118.5 202h60l-150 -510h-1007l10 45l1052 1290h-112z" />
    <glyph glyph-name="bracketleft" unicode="[" horiz-adv-x="909" 
d="M555 1409h324l-17 -61q-104 0 -137 -17.5t-48 -44t-27 -72.5t-34 -127t-49.5 -183.5t-59.5 -218.5t-62.5 -231.5t-60.5 -225t-67 -250t-44 -182.5t18.5 -64.5t124.5 -22.5l-19 -74h-327z" />
    <glyph glyph-name="backslash" unicode="\" horiz-adv-x="569" 
d="M-31 1434l746 -1459h-111l-745 1459h110z" />
    <glyph glyph-name="bracketright" unicode="]" horiz-adv-x="909" 
d="M301 -365h-324l17 62q106 0 138 17.5t47.5 44t27.5 72.5t33.5 127t49 183.5t59.5 218t62.5 231.5t60.5 225.5t66.5 248.5t44.5 182q7 43 -18.5 65.5t-124.5 22.5l19 74h327z" />
    <glyph glyph-name="asciicircum" unicode="^" horiz-adv-x="1228" 
d="M186 662l375 747h107l374 -747h-127l-301 600l-301 -600h-127z" />
    <glyph glyph-name="underscore" unicode="_" horiz-adv-x="1024" 
d="M0 -256v102h1024v-102h-1024z" />
    <glyph glyph-name="grave" unicode="`" horiz-adv-x="720" 
d="M254 1378q0 26 21.5 47t50 21t49 -16.5t67.5 -75.5l201 -260h-61l-170 129q-43 33 -73 53t-49.5 35.5t-27.5 28t-8 38.5z" />
    <glyph glyph-name="a" unicode="a" 
d="M774 109q0 -72 64 -72q87 0 225 342l49 -12q-29 -63 -100.5 -227.5t-212.5 -164.5q-68 0 -119 56.5t-45 179.5l-6 4q-56 -102 -122 -171t-180 -69t-197 108.5t-83 263.5q0 154 53.5 271t132 199t166.5 126t168 44q156 0 176 -235h5l47 211h180l-174 -719
q-27 -119 -27 -135zM694 668q0 116 -35 187t-87 71t-95 -33t-100 -113.5t-105.5 -250.5t-48.5 -291t34 -161t94 -40t122 57.5t111 147.5t79.5 200t30.5 226z" />
    <glyph glyph-name="b" unicode="b" horiz-adv-x="1024" 
d="M654 987q105 0 188.5 -105t83.5 -272q0 -121 -45 -235.5t-120 -203.5t-174.5 -142.5t-190.5 -53.5q-162 0 -242 94t-80 242q0 86 44 243.5t117.5 401t73.5 291.5q0 47 -27.5 60.5t-119.5 15.5l12 53l350 8l-153 -598l4 -4q64 140 146.5 172.5t132.5 32.5zM750 748
q0 178 -109 178t-201 -131t-145 -305.5t-53 -299.5q0 -68 40 -110.5t104 -42.5t116.5 43t108 135t97.5 270t42 263z" />
    <glyph glyph-name="c" unicode="c" horiz-adv-x="909" 
d="M817 346q-155 -371 -440 -371q-136 0 -238 104t-102 288q0 141 61.5 255.5t151.5 195.5t191.5 125t181.5 44q249 0 249 -205q0 -74 -37.5 -110.5t-78.5 -36.5t-74 26.5t-33 72.5t19.5 66.5t43 31t43 17.5t19.5 24t-38 35t-93 18q-102 0 -181 -74t-131 -178.5t-79 -218
t-27 -211.5t40 -152.5t149 -54.5q170 0 250.5 139t103.5 193z" />
    <glyph glyph-name="d" unicode="d" 
d="M815 49q104 0 250 328l49 -21q-27 -53 -98.5 -217t-241.5 -164q-80 0 -110.5 60.5t-32.5 177.5h-4q-61 -114 -108.5 -156.5t-94.5 -62t-138 -19.5t-169 109.5t-78 265.5t53 273.5t132 198.5t167 123t168 42q156 0 176 -235h4l68 243q59 208 59 244q0 37 -25.5 59.5
t-117.5 24.5l12 53l355 8l-230 -868q-6 -27 -54 -186t-48 -220t57 -61zM564 934q-52 0 -95 -33t-99 -114t-105.5 -253.5t-49.5 -308.5q0 -188 137 -188q57 0 116.5 57.5t138.5 204t79 365.5q0 129 -35 199.5t-87 70.5z" />
    <glyph glyph-name="e" unicode="e" horiz-adv-x="909" 
d="M49 386q0 116 59.5 232.5t147.5 198.5t190 126t210 44t166.5 -51.5t58.5 -123.5t-29 -131.5t-147 -148.5t-469 -143q-19 -88 -19 -167q0 -80 46.5 -132.5t120.5 -52.5t130.5 29.5t107 74.5t93.5 99.5t80 101.5l43 -43q-53 -63 -101.5 -121.5t-131.5 -130.5t-220 -72
t-236.5 104.5t-99.5 306.5zM741 792q0 134 -116 134q-104 0 -220.5 -133.5t-156.5 -348.5q202 26 304.5 92t145.5 129t43 127z" />
    <glyph glyph-name="f" unicode="f" horiz-adv-x="681" 
d="M818 1409q64 0 104.5 -39t40.5 -86t-31 -73.5t-69 -26.5t-63.5 21.5t-25.5 58.5t14.5 47t14.5 23q0 14 -36 14q-82 1 -165 -99.5t-115 -285.5h220l-17 -62h-213q-61 -400 -104 -606q-76 -363 -224 -523.5t-319 -160.5q-74 0 -131 45t-57 115q0 39 29.5 73.5t79.5 34.5
t74.5 -25.5t24.5 -57.5t-8 -49t-17 -26.5t-17.5 -15.5t-8.5 -15q0 -18 62 -18q96 0 174 85t105 247t66 459t81 438h-172l18 62h172q75 207 226.5 326.5t286.5 119.5z" />
    <glyph glyph-name="g" unicode="g" horiz-adv-x="1024" 
d="M608 160q-109 -185 -250 -185q-143 0 -220 108t-77 262t51.5 271t128 200t166 127t154.5 44q110 0 147.5 -68t53.5 -190h4l59 234h170l-229 -885q-58 -225 -191.5 -346t-339.5 -121q-296 0 -296 179q0 52 31.5 75.5t76.5 23.5q92 0 92 -94q0 -39 -19.5 -59.5t-19.5 -38.5
q0 -25 81 -25q169 0 271.5 106.5t159.5 377.5zM238 225q0 -188 129 -188q53 0 112.5 55t142.5 202t83 361q0 147 -36.5 209t-92.5 62t-98 -35t-96.5 -122t-99 -248t-44.5 -296z" />
    <glyph glyph-name="h" unicode="h" 
d="M713 987q110 0 167.5 -69.5t57.5 -165.5t-33 -182.5t-73.5 -168.5t-73.5 -150.5t-33 -114.5t26.5 -66.5t53.5 -20.5q57 0 117 74t153 256l51 -23q-84 -176 -168 -278.5t-185 -102.5t-154.5 65.5t-53.5 155.5t33 173.5t73 167.5t73.5 158.5t33.5 119.5t-13 78t-60 33
t-100.5 -42t-131.5 -148.5t-163 -320t-126 -415.5h-182l283 1087q37 129 37 159q0 29 -7.5 41.5t-31 22t-138.5 13.5l15 53l375 8l-197 -768h4q31 49 125 210t246 161z" />
    <glyph glyph-name="i" unicode="i" horiz-adv-x="796" 
d="M422 37q108 0 270 328l49 -21q-118 -257 -210.5 -313t-141.5 -56q-91 0 -145 66t-54 158t34 174t73 157.5t69.5 147.5t30.5 160t-71 88q-91 0 -154 -121t-94 -189l-49 17q67 163 121.5 230t101.5 95.5t98 28.5q90 0 142.5 -72t52.5 -159q0 -86 -31 -176.5t-66.5 -177.5
t-66.5 -161.5t-31 -117.5t15.5 -64.5t56.5 -21.5zM426 1287q0 52 35 87t83 35t84 -36t36 -86t-36 -85t-85 -35t-83 34t-34 86z" />
    <glyph glyph-name="j" unicode="j" horiz-adv-x="681" 
d="M-235.5 -340.5q-63.5 48.5 -63.5 101.5q0 54 29.5 87t74.5 33t71 -21.5t26 -51.5t-11.5 -47t-24.5 -29.5t-24.5 -20.5t-11.5 -15t16.5 -15.5t65.5 -8.5q99 0 161 70t93 180l209 735q39 136 39 211q0 58 -67 58t-145.5 -105t-127.5 -207l-51 25q76 148 163 248t209 100
q94 0 144.5 -45t50.5 -124t-49 -245l-176 -612q-77 -248 -206.5 -299t-230.5 -51q-100 0 -163.5 48.5zM471 1287q0 52 35 87t83 35t84 -36t36 -86t-36 -85t-85 -35t-83 34t-34 86z" />
    <glyph glyph-name="k" unicode="k" horiz-adv-x="1024" 
d="M780 913q-14 0 -37.5 -30.5t-45 -71.5t-40 -81t-33.5 -70q-56 -114 -161 -134v-8q162 -22 185 -106.5t19.5 -160t-1.5 -110.5t9 -57.5t41.5 -22.5t90.5 69t137 247l45 -29q-117 -303 -215 -338t-160 -35t-101.5 40.5t-39.5 102.5t8 120t8 114t-7 78.5t-34.5 42
t-146.5 27.5l-129 -500h-178l297 1147q20 72 20 108q0 35 -23.5 50.5t-115.5 17.5l12 53l351 8l-216 -823q115 0 159 26.5t68.5 61.5t53.5 101q64 145 113 191t115 46q143 0 143 -119q0 -49 -29 -77.5t-71 -28.5t-65.5 24.5t-23.5 65.5l13 51q-1 10 -15 10z" />
    <glyph glyph-name="l" unicode="l" horiz-adv-x="569" 
d="M81 31.5q-52 56.5 -52 135.5t30 193l207 770q8 29 18.5 64.5t10.5 67.5t-29.5 45.5t-113.5 15.5l12 53l354 8l-293 -1093q-37 -111 -37 -183t64 -71q64 0 124 94t86.5 147.5t41.5 79.5l47 -24q-25 -43 -101 -201t-235 -158q-82 0 -134 56.5z" />
    <glyph glyph-name="m" unicode="m" horiz-adv-x="1820" 
d="M1434 811q0 113 -82 113q-70 0 -181.5 -139.5t-173 -305.5t-75.5 -227l-64 -252h-186l168 629q37 145 37 221t-68 76t-146.5 -108.5t-153.5 -270t-116 -303.5l-67 -244h-185l164 592q47 160 47 247t-57 87q-127 0 -248 -318l-55 19q55 164 133 262t174 98t138 -64.5
t42 -153.5t-8 -167v-4h4q73 174 167 281.5t181 107.5q117 0 149 -93t32 -165t-9 -133l4 -4q76 178 170.5 286.5t191.5 108.5t154.5 -79.5t57.5 -189.5q0 -109 -90 -325q-35 -82 -63.5 -153.5t-28.5 -110.5t22.5 -59.5t48.5 -20.5q53 0 111 67t149 246l58 -16
q-86 -172 -168 -271.5t-172 -99.5t-142.5 57.5t-54.5 147.5t27.5 172t66.5 166t67 159t30 134z" />
    <glyph glyph-name="n" unicode="n" horiz-adv-x="1251" 
d="M926 49q102 0 252 313l47 -20q-78 -166 -160 -266.5t-171 -100.5t-136 62.5t-47 158.5t30.5 182.5t69.5 170.5q37 84 67.5 156.5t30.5 125.5q0 94 -82 95q-92 0 -220 -171t-240 -542l-64 -213h-174l74 287q135 500 135 555q0 84 -62 84q-52 0 -118 -86.5t-117 -223.5
l-53 19q142 352 311 352q80 0 123 -58.5t43 -159.5t-21 -183l5 -4q129 278 229 341.5t158 63.5q111 0 162 -71t51 -158t-30 -174.5t-66 -175.5t-65.5 -163t-29.5 -114q0 -82 68 -82z" />
    <glyph glyph-name="o" unicode="o" horiz-adv-x="1024" 
d="M573 987q164 0 254.5 -123t90.5 -307q0 -102 -44.5 -206.5t-118 -187.5t-170 -135.5t-189.5 -52.5q-167 0 -257 122.5t-90 308.5q0 231 121 360t216.5 175t186.5 46zM758 721q0 205 -176 205q-119 0 -203 -121.5t-127 -277.5t-43 -264q0 -109 47 -167.5t121 -58.5t128 37
t111 120.5t99.5 249t42.5 277.5z" />
    <glyph glyph-name="p" unicode="p" 
d="M332 846q0 68 -56 67q-105 0 -235 -307l-51 17q74 169 120 234t92 97.5t108 32.5t105.5 -57.5t43.5 -134.5v-35q0 -35 -4 -60l4 -4q72 196 159 243.5t177 47.5t175 -113.5t85 -291.5q0 -113 -48.5 -221.5t-123 -194.5t-168 -138.5t-175.5 -52.5t-139 56.5t-57 148.5h-4
l-59 -264q-10 -43 -20.5 -85t-10.5 -76t38 -44t134 -14l-12 -62h-570l10 62q129 4 162 27.5t47.5 54.5t28.5 78l197 755q16 66 31.5 126.5t15.5 107.5zM393 254q0 -217 139 -217q109 0 204 150.5t119 319.5t24 212q0 111 -31.5 159t-97.5 48t-127.5 -69t-112.5 -170
t-84 -219t-33 -214z" />
    <glyph glyph-name="q" unicode="q" horiz-adv-x="1024" 
d="M45 337q0 144 53.5 261t132 203t170 136t175.5 50q155 0 225 -176l104 152h62l-258 -1049q-8 -35 -20.5 -76t-12.5 -66q0 -47 28.5 -61t124.5 -14l-12 -62h-557l10 62q135 4 177 34t61 103l94 348l-4 4q-66 -96 -127 -153.5t-164 -57.5t-182.5 109t-79.5 253zM221 180
q0 -60 32 -101.5t82 -41.5t93 33.5t105 115.5t122 254.5t60 300.5q0 184 -142 185q-150 0 -251 -271t-101 -475z" />
    <glyph glyph-name="r" unicode="r" horiz-adv-x="909" 
d="M457 582q187 405 381 405q58 0 98.5 -37t40.5 -96t-32 -97t-80 -38t-76.5 22.5t-28.5 56.5t12 51t26.5 28.5t27 17.5t12.5 12q0 19 -36 19t-82 -38t-142 -172t-207 -503l-64 -213h-170l74 287q106 391 120.5 460.5t14.5 94.5q0 84 -61 84q-51 0 -118 -85.5t-118 -224.5
l-53 19q142 352 311 352q80 0 123 -58.5t43 -156.5t-20 -186z" />
    <glyph glyph-name="s" unicode="s" horiz-adv-x="909" 
d="M636 69.5q-130 -94.5 -291 -94.5t-252 73.5t-91 168.5q0 51 30 87t84 36t82.5 -27.5t28.5 -71.5t-14 -64.5t-31.5 -32t-32 -17.5t-14.5 -16q0 -21 56 -47.5t125 -26.5q135 0 212.5 56.5t77.5 134.5t-83 124.5t-140 75.5t-140 89t-83 188t110.5 205t262.5 77t229.5 -55.5
t77.5 -117.5t-35 -91t-76 -29t-69.5 25.5t-28.5 57.5t9 46.5t21.5 24.5t21.5 18t9 18q0 17 -47 29.5t-120 12.5q-72 0 -139 -46t-67 -106t33 -95.5t83 -63t107.5 -53t140.5 -82t83 -186.5t-130 -224.5z" />
    <glyph glyph-name="t" unicode="t" horiz-adv-x="681" 
d="M332 37q108 0 270 328l49 -21q-118 -256 -210.5 -312.5t-145.5 -56.5q-90 0 -136 54.5t-46 136.5t34 203l146 532h-174l16 62h174l84 290h172l-84 -290h187l-17 -62h-186l-121 -444q-39 -143 -61.5 -219t-22.5 -117t15.5 -62.5t56.5 -21.5z" />
    <glyph glyph-name="u" unicode="u" horiz-adv-x="1251" 
d="M723 141q0 69 18 168l-4 4q-98 -212 -191 -275t-179 -63t-144.5 63t-58.5 151t32.5 177t71.5 179q41 90 73 166.5t32 119.5q0 95 -69 95t-125 -75t-122 -235l-51 25q59 160 130 253t172 93t152.5 -66t52.5 -152q1 -87 -27.5 -176t-62.5 -177t-62.5 -164t-28.5 -139.5
t87.5 -63.5t200 166.5t162.5 333.5l119 414h180l-163 -564q-68 -232 -68 -271q0 -40 12 -59.5t63 -19.5t102 76t130 246l47 -27q-97 -194 -159.5 -281.5t-167.5 -87.5q-68 0 -111 48.5t-43 117.5z" />
    <glyph glyph-name="v" unicode="v" horiz-adv-x="1024" 
d="M348 160q0 -124 130 -123q64 0 137 61.5t130.5 150.5t93 187t35.5 170t-21.5 109t-46 63.5t-46 51t-21.5 63.5t24.5 66.5t75.5 27.5t92.5 -60.5t41.5 -143.5t-16.5 -169t-64 -227.5t-167.5 -276.5t-263 -135q-142 0 -208 70.5t-66 182.5t28 195t60 159q35 76 62 141
t27 121q0 82 -71 82t-129.5 -87t-109.5 -216l-51 14q62 160 108 222.5t96 95t128 32.5t127 -58.5t49 -163.5t-84 -323q-31 -86 -55.5 -152t-24.5 -130z" />
    <glyph glyph-name="w" unicode="w" horiz-adv-x="1593" 
d="M1272 889q0 98 102 98q61 0 98 -53t37 -137t-14 -165t-61 -228.5t-161 -288t-274 -140.5q-206 0 -221.5 144.5t-11.5 216.5h-4q-29 -53 -111.5 -207t-257.5 -154q-83 0 -139.5 79t-56.5 183q0 103 26.5 182t59.5 155t59.5 145t26.5 115q-1 92 -65 92t-129.5 -87
t-113.5 -235l-57 17q27 128 115 247t189 119q100 0 154 -69.5t54 -164.5t-25.5 -177t-54 -158t-54.5 -144t-26 -122q0 -114 91 -115q91 0 210 210t174 429l74 287h189l-103 -388q-6 -23 -19.5 -67.5t-36 -148.5t-22.5 -171q0 -66 20.5 -108.5t84.5 -42.5t115 31.5t115 108
t119.5 229t55.5 274.5q0 37 -23.5 60.5t-52 45t-52 44t-23.5 59.5z" />
    <glyph glyph-name="x" unicode="x" 
d="M1047 358q-177 -383 -391 -383q-97 0 -147 74t-50 191l2 55l-4 4q-109 -324 -328 -324q-86 0 -134 47.5t-48 113.5t31.5 99t75.5 33t68.5 -25.5t24.5 -59.5t-14 -52t-31.5 -28.5t-32 -16.5t-14.5 -18t19.5 -25.5t71.5 -13.5t103.5 43t109.5 139.5t105.5 278.5t47.5 265
q0 171 -119 171q-166 0 -270 -318l-53 10q48 156 104.5 228t113 106.5t128.5 34.5q111 0 170 -96t53 -254h4q66 160 148.5 255t205.5 95q70 0 112 -39t42 -92t-27.5 -85t-72.5 -32t-73 23.5t-28 54.5t7.5 46.5t15.5 25.5t15 16t7 10q-1 19 -41 19t-86.5 -42t-106.5 -140.5
t-111.5 -289.5t-51.5 -308t84 -117q148 0 313 342z" />
    <glyph glyph-name="y" unicode="y" 
d="M344 137q0 -88 97 -88t220 169t168 345l109 400h176l-256 -916q-62 -211 -189 -323.5t-366 -112.5q-113 0 -200 52t-87 124q0 47 29 79t72 32t71.5 -26t28.5 -68t-19.5 -67.5t-19.5 -41.5q0 -23 86 -23t153.5 20.5t150 106t149.5 396.5l-4 4q-42 -81 -132 -152.5
t-186 -71.5t-153.5 62.5t-57.5 162.5t34 184.5t75 162.5q104 208 104 293t-71 86q-70 0 -121 -76t-127 -234l-55 19q33 70 102 211t223 141q89 0 139 -71.5t50 -154.5t-31 -173t-67 -180t-65.5 -163t-29.5 -108z" />
    <glyph glyph-name="z" unicode="z" horiz-adv-x="1024" 
d="M304 827q-67 0 -150 -202l-52 12q41 135 143 242.5t220 107.5q66 0 111 -31.5t79.5 -70.5t65.5 -71t69 -32t58 24.5t20 44.5t-10 37t-10 44q0 55 66 55t65 -94q0 -94 -109.5 -206t-364.5 -240t-413 -240l4 -4q95 51 179 51q83 0 131.5 -15.5t91.5 -34.5t84 -35.5
t84 -16.5q74 0 115 61.5t77 165.5l60 -6q-40 -168 -142 -283t-225 -115q-78 0 -131 32t-94 71t-76 70.5t-76 31.5q-72 0 -72 -39q0 -10 3.5 -17t10.5 -22t7 -43q0 -29 -19.5 -48t-49.5 -19t-50 22.5t-20 65.5q0 74 96 167t215 165.5t233.5 134t205.5 114t124 97.5l-4 4
q-72 -41 -159 -41q-88 0 -135.5 16.5t-86.5 37t-70.5 36.5t-98.5 16z" />
    <glyph glyph-name="braceleft" unicode="{" horiz-adv-x="909" 
d="M406 381q0 -63 -52.5 -233.5t-76 -253t-23.5 -130.5t29.5 -77t70.5 -35l-10 -41q-137 0 -187.5 39t-50.5 125q0 33 80 310t80 312q0 84 -108 125q82 27 134 71t75 124l125 422q56 181 143 238t239 57l-6 -41q-92 -16 -142 -73.5t-83 -168.5l-104 -356q-39 -133 -88 -186
t-156 -85l-2 -4q113 -29 113 -139z" />
    <glyph glyph-name="bar" unicode="|" horiz-adv-x="454" 
d="M193 0v1384h110v-1384h-110z" />
    <glyph glyph-name="braceright" unicode="}" horiz-adv-x="909" 
d="M449 664q0 67 52 235t75.5 251t23.5 126q0 100 -100 117l10 41q137 0 187.5 -39t50.5 -125q0 -36 -80 -311t-80 -312q0 -84 108 -125q-82 -27 -134 -70.5t-75 -123.5l-125 -422q-54 -179 -141 -237t-241 -58l6 41q92 16 142 73.5t83 168.5l104 356q39 133 89.5 187
t154.5 83l2 4q-112 29 -112 140z" />
    <glyph glyph-name="asciitilde" unicode="~" horiz-adv-x="1228" 
d="M395 489q-68 0 -105.5 -35.5t-74.5 -107.5l-74 86q85 176 256 176q59 0 120 -22t119 -48t108 -47.5t84 -21.5t60.5 13.5t48 34t40 47t37.5 52.5l73 -86q-59 -84 -115 -130t-145 -46t-188 60q-135 75 -244 75z" />
    <glyph glyph-name="exclamdown" unicode="&#xa1;" horiz-adv-x="681" 
d="M114 -365q-56 0 -86 33t-30 81t10 88t30.5 86t97 200t186.5 508h69q-70 -313 -133 -815q-10 -74 -49 -127.5t-95 -53.5zM549 917.5q0 -49.5 -35 -82t-84 -32.5t-84 32.5t-35 82t35 82t86 32.5t84 -32.5t33 -82z" />
    <glyph glyph-name="cent" unicode="&#xa2;" 
d="M139 590q0 226 141 387.5t336 200.5l64 256h78l-62 -250q143 0 178 -70t35 -123t-32.5 -89t-77.5 -36t-72 27t-27 65t17.5 56t38 28.5t38 19t17.5 28.5t-29.5 32.5t-59.5 12.5t-40 -2l-207 -826q207 22 332 322l49 -23q-103 -261 -220.5 -308.5t-178.5 -55.5l-68 -267
h-78l70 277q-106 23 -174 117.5t-68 220.5zM299 515q0 -73 27.5 -124t72.5 -69l201 792q-131 -57 -216 -243.5t-85 -355.5z" />
    <glyph glyph-name="sterling" unicode="&#xa3;" 
d="M647 88q-173 -113 -329 -113q-150 0 -216.5 62.5t-66.5 149.5q0 86 78 139t149 53q116 0 198.5 -32.5t223.5 -104.5q43 62 43 148q0 87 -36 153.5t-87 138.5h-342l14 66h283q-53 70 -94 143.5t-41 160.5q0 162 135 272t292 110t236.5 -70t79.5 -144t-36.5 -107.5
t-86 -33.5t-80 28t-30.5 68t17.5 58t39 30.5t39 20.5t17.5 25t-39.5 40t-147.5 23t-188 -69.5t-80 -182.5t83 -223.5t116 -151.5h350l-19 -61h-295q39 -115 39 -195q0 -81 -35.5 -157t-74.5 -123q102 -62 248 -62q119 0 174 84t71 127l47 -39q-69 -155 -124.5 -214.5
t-111.5 -88t-120 -28.5q-108 0 -171.5 28.5t-121.5 71.5zM109 176q0 -64 55 -101.5t132 -37.5t155.5 24.5t132.5 69.5q-29 20 -129 97t-184 77q-83 0 -122.5 -32.5t-39.5 -96.5z" />
    <glyph glyph-name="currency" unicode="&#xa4;" 
d="M106 710q0 183 109 310l-113 110l86 87l115 -115q132 110 311.5 110t311.5 -110l114 115l86 -87l-112 -110q108 -125 108 -310t-106 -319l108 -115l-82 -81l-110 118q-130 -116 -318.5 -116t-316.5 116l-111 -118l-82 81l109 115q-107 136 -107 319zM233 704.5
q0 -77.5 29 -148.5t80 -124t120.5 -85t151.5 -32t152 32t121 85t79.5 124t28.5 148.5t-28.5 148.5t-79.5 124t-121 85t-152 32t-151.5 -32t-120.5 -85t-80 -124t-29 -148.5z" />
    <glyph glyph-name="yen" unicode="&#xa5;" 
d="M592 1327q-49 -27 -49 -57t26 -133l113 -449l354 424q8 12 24.5 29.5t43 54.5t26.5 77t-29.5 57.5t-119.5 17.5l10 61h465l-12 -61q-68 -8 -119 -43t-111 -107l-337 -407h221l-25 -62h-248l-116 -139l-2 -8h342l-25 -62h-334l-61 -221q-29 -102 -29 -148.5t34.5 -66
t147.5 -23.5l-16 -61h-610l12 61q120 8 157 31t51.5 48.5t24.5 64.5l80 315h-329l24 62h322l2 12l-33 135h-266l24 62h228l-119 487q-9 38 -38.5 54t-105.5 16l9 61h540l-12 -61q-86 6 -135 -21z" />
    <glyph glyph-name="brokenbar" unicode="&#xa6;" horiz-adv-x="454" 
d="M193 518h110v-518h-110v518zM193 1384h110v-518h-110v518z" />
    <glyph glyph-name="section" unicode="&#xa7;" horiz-adv-x="1024" 
d="M393 918q55 0 99 -31l4 4q-51 66 -86 131t-35 139q0 131 92 202t217 71t192.5 -57t67.5 -138q0 -51 -29.5 -86t-73.5 -35t-71 24.5t-27 58.5q0 50 37 80.5t37 49.5q0 18 -23.5 38t-112.5 20t-138 -54.5t-49 -130.5t183 -299.5t183 -352.5t-72 -206.5t-178 -77.5
q-41 0 -80 13l-2 -5q16 -20 38 -45.5t52.5 -76.5t30.5 -114q0 -124 -95.5 -217t-227.5 -93t-208.5 67.5t-76.5 141.5t35 109.5t79 35.5q99 0 99 -90q0 -46 -33 -73t-47 -41.5t-14 -37.5t35 -41t97 -18q107 0 168.5 56t61.5 120q0 65 -27.5 112.5t-67.5 96.5t-155.5 175.5
t-115.5 304.5q0 179 91 224.5t146 45.5zM430 856q-156 0 -156 -143q0 -87 102 -223q82 -109 121 -138.5t95 -29.5q57 0 99 42t42 98t-29.5 122.5t-74.5 127t-98.5 102.5t-100.5 42z" />
    <glyph glyph-name="dieresis" unicode="&#xa8;" horiz-adv-x="720" 
d="M225 1227q0 43 31 71.5t71 28.5t69.5 -29.5t29.5 -69.5t-28.5 -71t-71.5 -31t-72 29t-29 72zM637 1227q0 43 30.5 71.5t70.5 28.5t70 -29.5t30 -69.5t-29 -71t-72 -31t-71.5 29t-28.5 72z" />
    <glyph glyph-name="copyright" unicode="&#xa9;" horiz-adv-x="1638" 
d="M796.5 1434q147.5 0 278.5 -58.5t228.5 -158t153.5 -231.5t56 -281.5t-56 -281.5t-153.5 -231.5t-228.5 -158t-278.5 -58.5t-278.5 58.5t-228 158t-153.5 231.5t-56.5 281.5t56.5 281.5t153.5 231.5t228 158t278.5 58.5zM797 61q123 0 232.5 51.5t192.5 139.5t132 204.5
t49 248t-49 248t-132 204.5t-192.5 139.5t-232.5 51.5t-233.5 -51.5t-193.5 -139.5t-131.5 -204.5t-48.5 -248t48.5 -248t131.5 -204.5t193.5 -139.5t233.5 -51.5zM537 673.5q0 -210.5 115.5 -264t215.5 -53.5t161 48.5t89 117.5h33l-35 -143q-6 -25 -46 -38
q-118 -38 -216 -38t-180 23.5t-143.5 73t-97.5 128t-36 239.5t127 262t322 101q88 0 136 -13t91 -27t43 -46v-147h-33q-21 180 -237 180q-152 0 -230.5 -96.5t-78.5 -307z" />
    <glyph glyph-name="ordfeminine" unicode="&#xaa;" horiz-adv-x="684" 
d="M580 899q0 -12 9 -20.5t21 -8.5q35 0 69 44t85 157l37 -8q-64 -135 -97.5 -173t-58 -50.5t-63.5 -12.5t-70 33t-31 111h-4q-32 -85 -88.5 -114.5t-95.5 -29.5q-86 0 -136.5 67t-50.5 159t35 162.5t85 118.5t107.5 74t110.5 26t79 -36t32 -106h4l35 127h119
q-16 -66 -40 -150.5t-44.5 -163.5t-34.5 -136.5t-14 -69.5zM233 977q0 -109 73 -109q30 0 69 30t95 115.5t56 232.5t-90 147q-35 0 -71.5 -40t-84 -139t-47.5 -237z" />
    <glyph glyph-name="guillemotleft" unicode="&#xab;" horiz-adv-x="1024" 
d="M892 852q15 0 15 -14q0 -32 -126 -163.5t-154.5 -161.5t-40.5 -42q36 -77 101 -201t65 -142q0 -17 -25 -17q-8 0 -32.5 34.5t-100 139t-154.5 184.5v25q138 99 287.5 228.5t164.5 129.5zM564 852q16 0 16 -11t-20.5 -39t-91 -109.5t-210.5 -221.5q36 -77 101 -201
t65 -142q0 -17 -25 -17q-8 0 -32.5 34.5t-99.5 138t-154 185.5v25q134 95 251 197t151 131.5t49 29.5z" />
    <glyph glyph-name="logicalnot" unicode="&#xac;" horiz-adv-x="1228" 
d="M942 612h-852v111h963v-518h-111v407z" />
    <glyph glyph-name="registered" unicode="&#xae;" horiz-adv-x="1638" 
d="M796.5 1434q147.5 0 278.5 -58.5t228.5 -158t153.5 -231.5t56 -281.5t-56 -281.5t-153.5 -231.5t-228.5 -158t-278.5 -58.5t-278.5 58.5t-228 158t-153.5 231.5t-56.5 281.5t56.5 281.5t153.5 231.5t228 158t278.5 58.5zM797 61q123 0 232.5 51.5t192.5 139.5t132 204.5
t49 248t-49 248t-132 204.5t-192.5 139.5t-232.5 51.5t-233.5 -51.5t-193.5 -139.5t-131.5 -204.5t-48.5 -248t48.5 -248t131.5 -204.5t193.5 -139.5t233.5 -51.5zM453 324v36q72 6 89 20.5t17 55.5v555q0 41 -17.5 55.5t-88.5 20.5v37h372q121 0 185.5 -54.5t64.5 -138.5
t-50 -140t-124 -81l125 -166q98 -134 170 -180v-20h-127q-36 0 -78.5 54.5t-187.5 287.5h-117v-230q0 -41 17.5 -55t89.5 -21v-36h-340zM948 899q0 160 -166 160h-96v-348h92q170 0 170 188z" />
    <glyph glyph-name="macron" unicode="&#xaf;" horiz-adv-x="720" 
d="M825 1176h-616l22 110h617z" />
    <glyph glyph-name="macron" unicode="&#x2c9;" horiz-adv-x="720" 
d="M825 1176h-616l22 110h617z" />
    <glyph glyph-name="degree" unicode="&#xb0;" horiz-adv-x="819" 
d="M158 1140.5q0 61.5 22.5 115t62.5 93.5t93 62.5t114.5 22.5t114.5 -22.5t93 -62.5t62.5 -93.5t22.5 -115t-22.5 -114.5t-62.5 -93t-93 -62.5t-114.5 -22.5t-114.5 22.5t-93 62.5t-62.5 93t-22.5 114.5zM244 1141q0 -43 16 -83t44 -71t67 -48t82 -17t79.5 17t64.5 48
t44 71t16 83t-16 83t-44 70.5t-65.5 48t-80.5 17.5t-81 -17.5t-66 -48t-44 -70.5t-16 -83z" />
    <glyph glyph-name="plusminus" unicode="&#xb1;" horiz-adv-x="1228" 
d="M516 963h111v-334h426v-111h-426v-334h-111v334h-426v111h426v334zM90 111h963v-111h-963v111z" />
    <glyph glyph-name="twosuperior" unicode="&#xb2;" horiz-adv-x="681" 
d="M641 1272q0 117 -154 117q-99 0 -171 -66.5t-72 -159.5q0 -61 63 -61q54 0 101 58.5t51 115.5l49 -12q-12 -83 -69.5 -145t-122.5 -62q-66 0 -98 32.5t-32 81.5q0 101 96.5 182t230.5 81t200.5 -55.5t66.5 -132.5q0 -76 -32.5 -124.5t-86 -87.5t-122 -72.5t-195 -98
t-215.5 -150.5l4 -4q68 47 111 47q64 0 132.5 -39t116.5 -39q75 0 113 48t70 120l37 -6q-98 -281 -273 -281q-90 0 -150 52t-84 64.5t-54 12.5t-31 -24q0 -14 7 -27.5t7 -32.5q0 -39 -55 -39t-55 56q0 48 81 126.5t308 210.5q227 131 227 314z" />
    <glyph glyph-name="threesuperior" unicode="&#xb3;" horiz-adv-x="681" 
d="M344 1092q-122 0 -121 104q0 96 90 167t214 71t189.5 -58.5t65.5 -134.5t-38.5 -122t-85 -70.5t-85 -33.5t-38.5 -13.5t25.5 -10.5t80.5 -38.5t55 -138.5t-108.5 -180.5t-288.5 -74.5q-113 0 -178.5 49.5t-65.5 117.5t34 97t81 29q76 0 76 -66q0 -35 -23.5 -54t-46 -19
t-33 5t-20.5 4.5t-10 -26.5t46.5 -59t118.5 -33t120 20.5t83 56.5t55.5 84t20.5 105.5t-26.5 85t-43.5 27.5l-102 -8q-41 1 -41 23t55 22l80 -6q20 0 48 17.5t68 73t40 161.5q0 57 -35 90t-87 33q-96 0 -164 -54.5t-68 -126.5t55 -71q105 0 156 139l43 -12q-23 -70 -74 -121
t-117 -51z" />
    <glyph glyph-name="acute" unicode="&#xb4;" horiz-adv-x="720" 
d="M768 1446q20 0 41.5 -19.5t21.5 -50.5t-9 -42t-27 -23l-349 -217h-71l284 280q60 65 74.5 68.5t34.5 3.5z" />
    <glyph glyph-name="mu" unicode="&#xb5;" horiz-adv-x="1251" 
d="M332 112.5q0 -63.5 87.5 -63.5t200 166.5t162.5 333.5l119 414h180l-163 -564q-68 -232 -68 -271q0 -40 12 -59.5t63 -19.5t102 76t130 246l47 -27q-97 -194 -159.5 -281.5t-167.5 -87.5q-68 0 -111 48.5t-43 117.5t18 168l-4 4q-98 -212 -190.5 -275t-156.5 -63t-109 23
q-18 -55 -30.5 -124t-32 -128t-51.5 -99t-87 -40t-82 34.5t-27 76.5t30 129t84 225t171 430.5t117 337.5q0 86 -72 86q-66 0 -122 -75t-122 -235l-51 25q59 160 130 253t172 93t152.5 -66t52.5 -152q1 -87 -27.5 -176t-62.5 -177t-62.5 -164t-28.5 -139.5z" />
    <glyph glyph-name="mu" unicode="&#x3bc;" horiz-adv-x="1251" 
d="M332 112.5q0 -63.5 87.5 -63.5t200 166.5t162.5 333.5l119 414h180l-163 -564q-68 -232 -68 -271q0 -40 12 -59.5t63 -19.5t102 76t130 246l47 -27q-97 -194 -159.5 -281.5t-167.5 -87.5q-68 0 -111 48.5t-43 117.5t18 168l-4 4q-98 -212 -190.5 -275t-156.5 -63t-109 23
q-18 -55 -30.5 -124t-32 -128t-51.5 -99t-87 -40t-82 34.5t-27 76.5t30 129t84 225t171 430.5t117 337.5q0 86 -72 86q-66 0 -122 -75t-122 -235l-51 25q59 160 130 253t172 93t152.5 -66t52.5 -152q1 -87 -27.5 -176t-62.5 -177t-62.5 -164t-28.5 -139.5z" />
    <glyph glyph-name="paragraph" unicode="&#xb6;" horiz-adv-x="1228" 
d="M246 834q0 80 25.5 180t84 187t153.5 147.5t234 60.5h576l-16 -61q-102 0 -140.5 -25t-54.5 -82l-440 -1606h-119l471 1713h-129l-471 -1713h-119l256 932q-168 4 -239.5 74t-71.5 193z" />
    <glyph glyph-name="periodcentered" unicode="&#xb7;" horiz-adv-x="569" 
d="M156 481q0 49 34.5 84t84 35t84 -35t34.5 -84t-34.5 -84t-84 -35t-84 35t-34.5 84z" />
    <glyph glyph-name="periodcentered" unicode="&#x2219;" horiz-adv-x="569" 
d="M156 481q0 49 34.5 84t84 35t84 -35t34.5 -84t-34.5 -84t-84 -35t-84 35t-34.5 84z" />
    <glyph glyph-name="cedilla" unicode="&#xb8;" horiz-adv-x="720" 
d="M93 -360q60 0 91 24.5t31 58.5t-24.5 59t-64.5 25t-77 -12l-18 17l125 196h80l-91 -131l5 -4q24 8 52 8q64 0 112 -36t48 -110q0 -75 -67.5 -122t-182.5 -47t-184 45l35 61q70 -32 130 -32z" />
    <glyph glyph-name="onesuperior" unicode="&#xb9;" horiz-adv-x="681" 
d="M456.5 632.5q28.5 -14.5 118.5 -14.5l-8 -45h-456l8 45q134 5 155 34.5t27 47.5q41 152 86 299.5t86 290.5h-154l9 45q141 8 268 84h43q-4 -14 -21.5 -72.5t-41 -138.5t-86 -292.5t-62.5 -240.5t28.5 -42.5z" />
    <glyph glyph-name="ordmasculine" unicode="&#xba;" horiz-adv-x="614" 
d="M477 1434q96 0 154.5 -76t58.5 -193t-108 -227.5t-244 -110.5q-96 0 -154.5 76t-58.5 194t108.5 227.5t243.5 109.5zM580 1276q0 117 -107 117q-82 0 -138 -79.5t-77.5 -177.5t-21.5 -151q0 -117 104 -117q84 0 147.5 90t78 194t14.5 124z" />
    <glyph glyph-name="guillemotright" unicode="&#xbb;" horiz-adv-x="1024" 
d="M96 111q-16 0 -16 14q0 34 154.5 194t166.5 173q-36 77 -100.5 200.5t-64.5 140.5q0 18 24 19q8 0 96 -125.5t191 -232.5v-25q-178 -131 -306.5 -244.5t-144.5 -113.5zM423 111q-15 0 -15 14q0 26 125.5 160.5t154.5 164t41 42.5q-36 77 -101 201t-65 141t25 18
q8 0 97 -127.5t189 -230.5v-25q-153 -112 -294.5 -235t-156.5 -123z" />
    <glyph glyph-name="onequarter" unicode="&#xbc;" horiz-adv-x="1708" 
d="M897 213q-51 0 -51 43q0 55 98 55q34 0 68 -8q143 236 202 541h142q-21 -160 -142.5 -330t-160.5 -215q98 -18 154.5 -42t76.5 -24l115 402h129l-115 -402q80 0 152 80l22 -22q-68 -102 -192 -131l-66 -230h-127l64 230q-48 0 -82 18t-70.5 44t-89.5 48
q-29 -16 -61.5 -36.5t-65.5 -20.5zM477 -25h-112l913 1459h113zM458.5 632.5q28.5 -14.5 119.5 -14.5l-9 -45h-456l8 45q134 5 155 34.5t27 47.5q41 152 86 299.5t86 290.5h-153l8 45q141 8 268 84h43q-4 -14 -21.5 -72.5t-41 -138.5t-86 -292.5t-62.5 -240.5t28.5 -42.5z
" />
    <glyph glyph-name="onehalf" unicode="&#xbd;" horiz-adv-x="1708" 
d="M1503 698q0 117 -153 117q-100 0 -172 -66t-72 -159q0 -62 58 -62t105.5 58.5t51.5 115.5l49 -12q-12 -83 -69.5 -145t-122.5 -62q-66 0 -97.5 33t-31.5 82q0 100 96 181t230 81t200.5 -55.5t66.5 -132.5q0 -76 -32.5 -124t-86 -87t-122 -73t-193 -97t-217.5 -152l4 -4
q68 47 111 47q66 0 176 -63t165.5 7t90.5 146l37 -6q-98 -280 -272 -280q-94 0 -152 52q-59 52 -83 64.5t-54 12.5t-31 -25q0 -14 7 -27.5t7 -31.5q0 -39 -55 -39t-55 55q0 49 78.5 125.5t306.5 208.5q123 72 177 149.5t54 167.5zM477 -25h-112l913 1459h113zM458.5 632.5
q28.5 -14.5 119.5 -14.5l-9 -45h-456l8 45q134 5 155 34.5t27 47.5q41 152 86 299.5t86 290.5h-153l8 45q141 8 268 84h43q-4 -14 -21.5 -72.5t-41 -138.5t-86 -292.5t-62.5 -240.5t28.5 -42.5z" />
    <glyph glyph-name="threequarters" unicode="&#xbe;" horiz-adv-x="1708" 
d="M344 1092q-122 0 -121 104q0 96 90 167t214 71t189.5 -58.5t65.5 -134.5t-38.5 -122t-85 -70.5t-85 -33.5t-38.5 -13.5t25.5 -10.5t80.5 -38.5t55 -138.5t-108.5 -180.5t-288.5 -74.5q-113 0 -178.5 49.5t-65.5 117.5t34 97t81 29q76 0 76 -66q0 -35 -23.5 -54t-46 -19
t-33 5t-20.5 4.5t-10 -26.5t46.5 -59t118.5 -33t120 20.5t83 56.5t55.5 84t20.5 105.5t-26.5 85t-43.5 27.5l-102 -8q-41 1 -41 23t55 22l80 -6q20 0 48 17.5t68 73t40 161.5q0 57 -35 90t-87 33q-96 0 -164 -54.5t-68 -126.5t55 -71q105 0 156 139l43 -12q-23 -70 -74 -121
t-117 -51zM897 213q-51 0 -51 43q0 55 98 55q34 0 68 -8q143 236 202 541h142q-21 -160 -142.5 -330t-160.5 -215q98 -18 154.5 -42t76.5 -24l115 402h129l-115 -402q80 0 152 80l22 -22q-68 -102 -192 -131l-66 -230h-127l64 230q-48 0 -82 18t-70.5 44t-89.5 48
q-29 -16 -61.5 -36.5t-65.5 -20.5zM477 -25h-112l913 1459h113z" />
    <glyph glyph-name="questiondown" unicode="&#xbf;" horiz-adv-x="1024" 
d="M715 -69q0 -79 -25.5 -135t-72 -97t-110 -64.5t-181 -23.5t-225 83.5t-107.5 225.5q0 211 248 305q329 122 352.5 178.5t23.5 90.5t-25.5 54.5t-68.5 20.5t-73.5 -33.5t-59.5 -105.5l-59 29q35 88 82.5 130t115.5 42t111 -45.5t43 -105.5t-20.5 -96t-66.5 -74.5
t-182 -126.5q-137 -87 -163.5 -110.5t-48 -63t-21.5 -107.5q0 -111 63.5 -170.5t133.5 -59.5q69 0 115.5 19.5t81 53.5t54 82t19.5 107.5t-28 112.5l47 27q47 -64 47 -143zM791 917.5q0 -49.5 -35 -82t-84 -32.5t-84 32.5t-35 82t35 82t86 32.5t84 -32.5t33 -82z" />
    <glyph glyph-name="Agrave" unicode="&#xc0;" horiz-adv-x="1366" 
d="M223 135q0 -68 185 -74l-13 -61h-538l14 61q177 21 253.5 124.5t104.5 152.5l619 1071h88l180 -1198q12 -87 43.5 -113.5t132.5 -36.5l-12 -61h-590l12 61q127 11 163 32.5t44.5 41t8.5 47.5t-13.5 93t-32.5 204h-477q-14 -29 -42.5 -78t-79 -139.5t-50.5 -126.5z
M446 553h416l-76 600h-4zM649 1751q0 27 21.5 47.5t50.5 20.5t49.5 -16.5t67.5 -76.5l200 -260h-61l-170 129q-43 33 -72.5 53.5t-49 36t-28 27.5t-8.5 39z" />
    <glyph glyph-name="Aacute" unicode="&#xc1;" horiz-adv-x="1366" 
d="M223 135q0 -68 185 -74l-13 -61h-538l14 61q177 21 253.5 124.5t104.5 152.5l619 1071h88l180 -1198q12 -87 43.5 -113.5t132.5 -36.5l-12 -61h-590l12 61q127 11 163 32.5t44.5 41t8.5 47.5t-13.5 93t-32.5 204h-477q-14 -29 -42.5 -78t-79 -139.5t-50.5 -126.5z
M446 553h416l-76 600h-4zM1164 1819q20 0 41.5 -19.5t21.5 -50.5t-9.5 -42t-27.5 -24l-348 -217h-72l285 281q60 65 74.5 68.5t34.5 3.5z" />
    <glyph glyph-name="Acircumflex" unicode="&#xc2;" horiz-adv-x="1366" 
d="M223 135q0 -68 185 -74l-13 -61h-538l14 61q177 21 253.5 124.5t104.5 152.5l619 1071h88l180 -1198q12 -87 43.5 -113.5t132.5 -36.5l-12 -61h-590l12 61q127 11 163 32.5t44.5 41t8.5 47.5t-13.5 93t-32.5 204h-477q-14 -29 -42.5 -78t-79 -139.5t-50.5 -126.5z
M446 553h416l-76 600h-4zM997 1810l181 -344h-74l-168 213l-283 -213h-78l322 344h100z" />
    <glyph glyph-name="Atilde" unicode="&#xc3;" horiz-adv-x="1366" 
d="M223 135q0 -68 185 -74l-13 -61h-538l14 61q177 21 253.5 124.5t104.5 152.5l619 1071h88l180 -1198q12 -87 43.5 -113.5t132.5 -36.5l-12 -61h-590l12 61q127 11 163 32.5t44.5 41t8.5 47.5t-13.5 93t-32.5 204h-477q-14 -29 -42.5 -78t-79 -139.5t-50.5 -126.5z
M446 553h416l-76 600h-4zM807 1733q78 0 141.5 -30t94 -44t70.5 -14t64.5 19t41.5 73h59q-23 -106 -77 -161.5t-115 -55.5t-130 32.5t-108 47t-78 14.5q-80 0 -104 -98h-60q47 217 201 217z" />
    <glyph glyph-name="Adieresis" unicode="&#xc4;" horiz-adv-x="1366" 
d="M223 135q0 -68 185 -74l-13 -61h-538l14 61q177 21 253.5 124.5t104.5 152.5l619 1071h88l180 -1198q12 -87 43.5 -113.5t132.5 -36.5l-12 -61h-590l12 61q127 11 163 32.5t44.5 41t8.5 47.5t-13.5 93t-32.5 204h-477q-14 -29 -42.5 -78t-79 -139.5t-50.5 -126.5z
M446 553h416l-76 600h-4zM621 1600q0 43 30.5 71.5t70.5 28.5t69.5 -30t29.5 -70t-28.5 -70.5t-71.5 -30.5t-71.5 29t-28.5 72zM1032 1600q0 43 31 71.5t71 28.5t69.5 -30t29.5 -70t-28.5 -70.5t-71.5 -30.5t-72 29t-29 72z" />
    <glyph glyph-name="Aring" unicode="&#xc5;" horiz-adv-x="1366" 
d="M223 135q0 -68 185 -74l-13 -61h-538l14 61q177 21 253.5 124.5t104.5 152.5l619 1071h88l180 -1198q12 -87 43.5 -113.5t132.5 -36.5l-12 -61h-590l12 61q127 11 163 32.5t44.5 41t8.5 47.5t-13.5 93t-32.5 204h-477q-14 -29 -42.5 -78t-79 -139.5t-50.5 -126.5z
M1079.5 1814.5q59.5 -59.5 59.5 -144.5t-59.5 -144.5t-144.5 -59.5t-144.5 59.5t-59.5 144.5t59.5 144.5t144.5 59.5t144.5 -59.5zM446 553h416l-76 600h-4zM805 1670q0 -54 37 -92t91 -38t93 38t39 92t-39 92t-93 38t-91 -38t-37 -92z" />
    <glyph glyph-name="AE" unicode="&#xc6;" horiz-adv-x="1933" 
d="M1462 1348q-98 0 -142 -36t-60 -106l-107 -420q135 4 193 53t104 181h59l-125 -561h-57q0 151 -37.5 202.5t-156.5 51.5q-12 -49 -37 -139.5t-66 -249.5t-41 -186q0 -28 26.5 -52.5t86.5 -24.5q197 0 328 114t223 347l63 -6l-147 -516h-996l15 61q105 8 138.5 28
t44.5 41.5t20 51.5l124 490h-344l-256 -338q-125 -169 -125 -193q0 -47 35.5 -63.5t145.5 -16.5l-13 -61h-460l14 61q51 -4 102.5 35t126.5 137l701 920q35 47 61.5 84t26.5 61q0 31 -44 37t-104 13l15 61h1104l-121 -500h-62l4 107q0 332 -260 332zM936 745l162 603h-25
l-450 -603h313z" />
    <glyph glyph-name="Ccedilla" unicode="&#xc7;" horiz-adv-x="1366" 
d="M558 -360q60 0 91 24.5t31 58.5t-24.5 59t-64.5 25t-77 -12l-18 17l104 165q-217 16 -360.5 188t-143.5 421q0 176 79 330.5t204 269t278 181.5t271 67t180.5 -21.5t103.5 -48.5t61.5 -48.5t31.5 -21.5q16 0 34.5 34t46.5 73h60l-123 -492l-51 -4q0 218 -64.5 336.5
t-261.5 118.5q-145 0 -260 -78t-239.5 -280.5t-124.5 -583.5q0 -293 136 -331t221 -38q171 0 299 132t193 339l72 -6q-99 -354 -278 -442t-287 -95l-68 -100l4 -4q23 8 52 8q65 0 113 -36t48 -110q0 -75 -67.5 -122t-182.5 -47t-184 45l35 61q70 -32 130 -32z" />
    <glyph glyph-name="Egrave" unicode="&#xc8;" horiz-adv-x="1366" 
d="M1155 1267q-78 81 -264 81t-218 -62.5t-42 -101.5l-103 -398q176 -7 233.5 29.5t86.5 83.5t59 121h60l-142 -561h-57q0 90 -8 140t-36 74.5t-79 31t-137 8.5l-100 -385q-12 -45 -27.5 -96.5t-15.5 -88.5q0 -82 133 -82q252 0 400 109t241 346h67l-147 -516h-1143l14 61
q168 0 200 59.5t44 104.5l211 817q16 63 32.5 121.5t16.5 98.5t-30.5 60.5t-131.5 25.5l17 61h1122l-121 -500h-61l4 107q0 170 -78 251zM684 1751q0 27 21.5 47.5t50 20.5t49 -16.5t67.5 -76.5l201 -260h-61l-170 129q-43 33 -73 53.5t-49.5 36t-27.5 27.5t-8 39z" />
    <glyph glyph-name="Eacute" unicode="&#xc9;" horiz-adv-x="1366" 
d="M1155 1267q-78 81 -264 81t-218 -62.5t-42 -101.5l-103 -398q176 -7 233.5 29.5t86.5 83.5t59 121h60l-142 -561h-57q0 90 -8 140t-36 74.5t-79 31t-137 8.5l-100 -385q-12 -45 -27.5 -96.5t-15.5 -88.5q0 -82 133 -82q252 0 400 109t241 346h67l-147 -516h-1143l14 61
q168 0 200 59.5t44 104.5l211 817q16 63 32.5 121.5t16.5 98.5t-30.5 60.5t-131.5 25.5l17 61h1122l-121 -500h-61l4 107q0 170 -78 251zM1198 1819q20 0 42 -19.5t22 -50.5t-9.5 -42t-27.5 -24l-348 -217h-72l285 281q60 65 74 68.5t34 3.5z" />
    <glyph glyph-name="Ecircumflex" unicode="&#xca;" horiz-adv-x="1366" 
d="M1155 1267q-78 81 -264 81t-218 -62.5t-42 -101.5l-103 -398q176 -7 233.5 29.5t86.5 83.5t59 121h60l-142 -561h-57q0 90 -8 140t-36 74.5t-79 31t-137 8.5l-100 -385q-12 -45 -27.5 -96.5t-15.5 -88.5q0 -82 133 -82q252 0 400 109t241 346h67l-147 -516h-1143l14 61
q168 0 200 59.5t44 104.5l211 817q16 63 32.5 121.5t16.5 98.5t-30.5 60.5t-131.5 25.5l17 61h1122l-121 -500h-61l4 107q0 170 -78 251zM1032 1810l180 -344h-73l-168 213l-283 -213h-78l322 344h100z" />
    <glyph glyph-name="Edieresis" unicode="&#xcb;" horiz-adv-x="1366" 
d="M1155 1267q-78 81 -264 81t-218 -62.5t-42 -101.5l-103 -398q176 -7 233.5 29.5t86.5 83.5t59 121h60l-142 -561h-57q0 90 -8 140t-36 74.5t-79 31t-137 8.5l-100 -385q-12 -45 -27.5 -96.5t-15.5 -88.5q0 -82 133 -82q252 0 400 109t241 346h67l-147 -516h-1143l14 61
q168 0 200 59.5t44 104.5l211 817q16 63 32.5 121.5t16.5 98.5t-30.5 60.5t-131.5 25.5l17 61h1122l-121 -500h-61l4 107q0 170 -78 251zM1067 1600q0 43 30.5 71.5t70.5 28.5t70 -30t30 -70t-29 -70.5t-72 -30.5t-71.5 29t-28.5 72zM655 1600q0 43 31 71.5t71 28.5
t69.5 -30t29.5 -70t-28.5 -70.5t-71.5 -30.5t-72 29t-29 72z" />
    <glyph glyph-name="Igrave" unicode="&#xcc;" horiz-adv-x="796" 
d="M461 1266q0 82 -164 82l16 61h592l-8 -61q-172 0 -199.5 -52.5t-35.5 -89.5l-181 -700q-12 -49 -27.5 -102.5t-38 -138.5t-22.5 -125t38 -62.5t147 -16.5l-17 -61h-610l20 61q153 -12 184 46.5t44 107.5l207 797q55 191 55 254zM399 1751q0 27 21.5 47.5t50.5 20.5
t49.5 -16.5t67.5 -76.5l200 -260h-61l-170 129q-43 33 -72.5 53.5t-49 36t-28 27.5t-8.5 39z" />
    <glyph glyph-name="Iacute" unicode="&#xcd;" horiz-adv-x="796" 
d="M461 1266q0 82 -164 82l16 61h592l-8 -61q-172 0 -199.5 -52.5t-35.5 -89.5l-181 -700q-12 -49 -27.5 -102.5t-38 -138.5t-22.5 -125t38 -62.5t147 -16.5l-17 -61h-610l20 61q153 -12 184 46.5t44 107.5l207 797q55 191 55 254zM914 1819q20 0 41.5 -19.5t21.5 -50.5
t-9.5 -42t-27.5 -24l-348 -217h-72l285 281q60 65 74.5 68.5t34.5 3.5z" />
    <glyph glyph-name="Icircumflex" unicode="&#xce;" horiz-adv-x="796" 
d="M461 1266q0 82 -164 82l16 61h592l-8 -61q-172 0 -199.5 -52.5t-35.5 -89.5l-181 -700q-12 -49 -27.5 -102.5t-38 -138.5t-22.5 -125t38 -62.5t147 -16.5l-17 -61h-610l20 61q153 -12 184 46.5t44 107.5l207 797q55 191 55 254zM748 1810l180 -344h-74l-168 213
l-283 -213h-77l321 344h101z" />
    <glyph glyph-name="Idieresis" unicode="&#xcf;" horiz-adv-x="796" 
d="M461 1266q0 82 -164 82l16 61h592l-8 -61q-172 0 -199.5 -52.5t-35.5 -89.5l-181 -700q-12 -49 -27.5 -102.5t-38 -138.5t-22.5 -125t38 -62.5t147 -16.5l-17 -61h-610l20 61q153 -12 184 46.5t44 107.5l207 797q55 191 55 254zM782 1600q0 43 31 71.5t71 28.5t69.5 -30
t29.5 -70t-28.5 -70.5t-71.5 -30.5t-72 29t-29 72zM371 1600q0 43 30.5 71.5t70.5 28.5t69.5 -30t29.5 -70t-28.5 -70.5t-71.5 -30.5t-71.5 29t-28.5 72z" />
    <glyph glyph-name="Eth" unicode="&#xd0;" horiz-adv-x="1478" 
d="M446 1274q0 35 -34.5 54.5t-132.5 19.5l16 61h670q137 0 227 -58.5t165 -176.5t75 -320q0 -279 -156.5 -504.5t-340 -287.5t-347.5 -62h-670l14 61q136 11 179 54t60 88t34 110l108 422h-174l25 86h172l53 207q18 72 37.5 141.5t19.5 104.5zM578 61q346 0 459.5 249.5
t141 422t27.5 268.5q0 195 -76 271t-240 76t-200.5 -62.5t-48.5 -111.5l-94 -353h395l-24 -86h-394l-80 -301q-10 -35 -20 -76t-26.5 -100t-16.5 -102t38.5 -69t158.5 -26z" />
    <glyph glyph-name="Ntilde" unicode="&#xd1;" horiz-adv-x="1478" 
d="M428 1253q0 89 -182 95l14 61h332l485 -1090h4l174 666q14 59 24.5 99t20 82.5t9.5 65.5q0 99 -170 116l14 61h473l-10 -61q-100 0 -153.5 -46.5t-80.5 -146.5l-307 -1155h-76l-514 1151h-4l-200 -776q-43 -148 -43 -202t39.5 -83t140.5 -29l-12 -61h-508l14 61
q102 10 159.5 44t78.5 104l221 809q20 72 38.5 136.5t18.5 98.5zM897 1733q78 0 141.5 -30t94 -44t70.5 -14t64.5 19t41.5 73h59q-23 -106 -77 -161.5t-115 -55.5t-130 32.5t-108 47t-78 14.5q-80 0 -104 -98h-60q47 217 201 217z" />
    <glyph glyph-name="Ograve" unicode="&#xd2;" horiz-adv-x="1478" 
d="M1423 800q0 -146 -69.5 -299t-185 -269.5t-262 -186.5t-278.5 -70q-245 0 -383.5 173.5t-138.5 470.5t205 507.5t352 259t251 48.5t198 -48.5t162.5 -131.5t108.5 -195.5t40 -258.5zM901 1360q-209 0 -341.5 -166.5t-192.5 -393t-60 -365.5q0 -138 26.5 -204.5t90.5 -124
t188 -57.5t209.5 49t181 162.5t158 333t62.5 391.5t-82 273.5t-240 101.5zM739 1751q0 27 21.5 47.5t50.5 20.5t49.5 -16.5t67.5 -76.5l200 -260h-61l-170 129q-43 33 -72.5 53.5t-49 36t-28 27.5t-8.5 39z" />
    <glyph glyph-name="Oacute" unicode="&#xd3;" horiz-adv-x="1478" 
d="M1423 800q0 -146 -69.5 -299t-185 -269.5t-262 -186.5t-278.5 -70q-245 0 -383.5 173.5t-138.5 470.5t205 507.5t352 259t251 48.5t198 -48.5t162.5 -131.5t108.5 -195.5t40 -258.5zM901 1360q-209 0 -341.5 -166.5t-192.5 -393t-60 -365.5q0 -138 26.5 -204.5t90.5 -124
t188 -57.5t209.5 49t181 162.5t158 333t62.5 391.5t-82 273.5t-240 101.5zM1254 1819q20 0 41.5 -19.5t21.5 -50.5t-9.5 -42t-27.5 -24l-348 -217h-72l285 281q60 65 74.5 68.5t34.5 3.5z" />
    <glyph glyph-name="Ocircumflex" unicode="&#xd4;" horiz-adv-x="1478" 
d="M1423 800q0 -146 -69.5 -299t-185 -269.5t-262 -186.5t-278.5 -70q-245 0 -383.5 173.5t-138.5 470.5t205 507.5t352 259t251 48.5t198 -48.5t162.5 -131.5t108.5 -195.5t40 -258.5zM901 1360q-209 0 -341.5 -166.5t-192.5 -393t-60 -365.5q0 -138 26.5 -204.5t90.5 -124
t188 -57.5t209.5 49t181 162.5t158 333t62.5 391.5t-82 273.5t-240 101.5zM1087 1810l181 -344h-74l-168 213l-283 -213h-77l321 344h100z" />
    <glyph glyph-name="Otilde" unicode="&#xd5;" horiz-adv-x="1478" 
d="M1423 800q0 -146 -69.5 -299t-185 -269.5t-262 -186.5t-278.5 -70q-245 0 -383.5 173.5t-138.5 470.5t205 507.5t352 259t251 48.5t198 -48.5t162.5 -131.5t108.5 -195.5t40 -258.5zM901 1360q-209 0 -341.5 -166.5t-192.5 -393t-60 -365.5q0 -138 26.5 -204.5t90.5 -124
t188 -57.5t209.5 49t181 162.5t158 333t62.5 391.5t-82 273.5t-240 101.5zM897 1733q78 0 141.5 -30t94 -44t70.5 -14t64.5 19t41.5 73h59q-23 -106 -77 -161.5t-115 -55.5t-130 32.5t-108 47t-78 14.5q-80 0 -104 -98h-60q47 217 201 217z" />
    <glyph glyph-name="Odieresis" unicode="&#xd6;" horiz-adv-x="1478" 
d="M1423 800q0 -146 -69.5 -299t-185 -269.5t-262 -186.5t-278.5 -70q-245 0 -383.5 173.5t-138.5 470.5t205 507.5t352 259t251 48.5t198 -48.5t162.5 -131.5t108.5 -195.5t40 -258.5zM901 1360q-209 0 -341.5 -166.5t-192.5 -393t-60 -365.5q0 -138 26.5 -204.5t90.5 -124
t188 -57.5t209.5 49t181 162.5t158 333t62.5 391.5t-82 273.5t-240 101.5zM711 1600q0 43 30.5 71.5t70.5 28.5t69.5 -30t29.5 -70t-28.5 -70.5t-71.5 -30.5t-71.5 29t-28.5 72zM1122 1600q0 43 31 71.5t71 28.5t69.5 -30t29.5 -70t-28.5 -70.5t-71.5 -30.5t-72 29t-29 72z
" />
    <glyph glyph-name="multiply" unicode="&#xd7;" horiz-adv-x="1228" 
d="M90 885l78 78l403 -404l404 404l78 -78l-404 -404l404 -403l-78 -78l-404 403l-403 -403l-78 78l404 403z" />
    <glyph glyph-name="Oslash" unicode="&#xd8;" horiz-adv-x="1478" 
d="M925 1434q114 0 226 -70l164 238h94l-195 -285q98 -86 153.5 -215t55.5 -289t-69.5 -312.5t-185 -269t-262 -186.5t-292.5 -70t-260 74l-161 -237h-103l199 290q-183 174 -183 516q0 298 252.5 557t566.5 259zM1223 975q0 162 -66 258l-751 -1108q80 -76 205 -76
t210.5 49t181 162.5t158 333t62.5 381.5zM906 1360q-120 0 -208 -51.5t-179.5 -166.5t-151.5 -341.5t-60 -376.5t45 -229l752 1099q-78 66 -198 66z" />
    <glyph glyph-name="Ugrave" unicode="&#xd9;" horiz-adv-x="1478" 
d="M1323 1246q0 62 -35 82t-135 20l8 61h475l-10 -61q-96 -4 -146.5 -35.5t-72.5 -122.5l-217 -819q-103 -396 -549 -396q-213 0 -342 104.5t-129 248.5q0 103 115.5 511.5t115.5 430.5q0 49 -34 63.5t-140 14.5l15 61h616l-12 -61q-123 0 -162 -20.5t-53.5 -47.5t-24.5 -66
l-188 -714q-47 -171 -47 -251.5t85.5 -140t206.5 -59.5q217 0 312.5 90.5t136.5 249.5l156 598q18 70 36.5 133.5t18.5 125.5zM739 1751q0 27 21.5 47.5t50.5 20.5t49.5 -16.5t67.5 -76.5l200 -260h-61l-170 129q-43 33 -72.5 53.5t-49 36t-28 27.5t-8.5 39z" />
    <glyph glyph-name="Uacute" unicode="&#xda;" horiz-adv-x="1478" 
d="M1323 1246q0 62 -35 82t-135 20l8 61h475l-10 -61q-96 -4 -146.5 -35.5t-72.5 -122.5l-217 -819q-103 -396 -549 -396q-213 0 -342 104.5t-129 248.5q0 103 115.5 511.5t115.5 430.5q0 49 -34 63.5t-140 14.5l15 61h616l-12 -61q-123 0 -162 -20.5t-53.5 -47.5t-24.5 -66
l-188 -714q-47 -171 -47 -251.5t85.5 -140t206.5 -59.5q217 0 312.5 90.5t136.5 249.5l156 598q18 70 36.5 133.5t18.5 125.5zM1254 1819q20 0 41.5 -19.5t21.5 -50.5t-9.5 -42t-27.5 -24l-348 -217h-72l285 281q60 65 74.5 68.5t34.5 3.5z" />
    <glyph glyph-name="Ucircumflex" unicode="&#xdb;" horiz-adv-x="1478" 
d="M1323 1246q0 62 -35 82t-135 20l8 61h475l-10 -61q-96 -4 -146.5 -35.5t-72.5 -122.5l-217 -819q-103 -396 -549 -396q-213 0 -342 104.5t-129 248.5q0 103 115.5 511.5t115.5 430.5q0 49 -34 63.5t-140 14.5l15 61h616l-12 -61q-123 0 -162 -20.5t-53.5 -47.5t-24.5 -66
l-188 -714q-47 -171 -47 -251.5t85.5 -140t206.5 -59.5q217 0 312.5 90.5t136.5 249.5l156 598q18 70 36.5 133.5t18.5 125.5zM1087 1810l181 -344h-74l-168 213l-283 -213h-77l321 344h100z" />
    <glyph glyph-name="Udieresis" unicode="&#xdc;" horiz-adv-x="1478" 
d="M1323 1246q0 62 -35 82t-135 20l8 61h475l-10 -61q-96 -4 -146.5 -35.5t-72.5 -122.5l-217 -819q-103 -396 -549 -396q-213 0 -342 104.5t-129 248.5q0 103 115.5 511.5t115.5 430.5q0 49 -34 63.5t-140 14.5l15 61h616l-12 -61q-123 0 -162 -20.5t-53.5 -47.5t-24.5 -66
l-188 -714q-47 -171 -47 -251.5t85.5 -140t206.5 -59.5q217 0 312.5 90.5t136.5 249.5l156 598q18 70 36.5 133.5t18.5 125.5zM1122 1600q0 43 31 71.5t71 28.5t69.5 -30t29.5 -70t-28.5 -70.5t-71.5 -30.5t-72 29t-29 72zM711 1600q0 43 30.5 71.5t70.5 28.5t69.5 -30
t29.5 -70t-28.5 -70.5t-71.5 -30.5t-71.5 29t-28.5 72z" />
    <glyph glyph-name="Yacute" unicode="&#xdd;" horiz-adv-x="1251" 
d="M543 1260q0 -34 8 -58t14 -51l117 -463l354 424q8 12 24.5 29.5t43 54.5t26.5 77t-29.5 57.5t-119.5 17.5l10 61h465l-12 -61q-68 -8 -119 -43t-111 -107l-505 -608l-80 -291q-29 -102 -29 -148.5t34.5 -66t147.5 -23.5l-16 -61h-610l12 61q120 8 157 31t51.5 48.5
t24.5 64.5l99 389l-166 684q-9 38 -38.5 54t-105.5 16l9 61h540l-12 -61q-86 6 -135 -24t-49 -64zM1128 1819q20 0 42 -19.5t22 -50.5t-9 -42t-28 -24l-348 -217h-72l285 281q60 65 74 68.5t34 3.5z" />
    <glyph glyph-name="Thorn" unicode="&#xde;" horiz-adv-x="1251" 
d="M569 387q-88 0 -178 4l-27 -105q-28 -104 -28 -145t38 -63.5t146 -16.5l-16 -61h-610l20 61q151 -11 183 47t44 107l207 797q55 191 55 254q0 82 -163 82l16 61h592l-8 -61q-123 0 -171.5 -33t-64.5 -109l-16 -65q50 4 194 4q236 0 337.5 -84.5t101.5 -268.5t-157 -294.5
t-495 -110.5zM995 868q0 110 -54.5 162.5t-150.5 52.5t-150 -15t-85 -52l-143 -551l125 -4q274 0 347.5 70.5t92 148.5t18.5 188z" />
    <glyph glyph-name="germandbls" unicode="&#xdf;" horiz-adv-x="1251" 
d="M258 963q189 446 572 446q175 0 273.5 -81t98.5 -222t-88 -187.5t-148.5 -58.5t-113.5 -22.5t-88 -25.5t-35 -51t28.5 -65.5t72.5 -57.5t168 -99t124 -238q0 -117 -113 -221.5t-279 -104.5q-165 0 -249 61t-84 134q0 74 32 118t84 44t81 -28t29 -69t-14.5 -62t-32 -32.5
t-32 -17.5t-14.5 -14q0 -23 53.5 -47.5t144.5 -24.5t154.5 49t63.5 164q0 79 -71.5 131.5t-120.5 81.5t-121 79.5t-72 125.5q0 76 34 113.5t84 59t108.5 36t108.5 42t84 75.5t34 144t-57.5 153t-159.5 57q-137 0 -243.5 -122t-152.5 -454.5t-69 -442.5t-60 -230t-87 -208
t-113.5 -150.5t-136 -96t-152.5 -33.5t-134.5 42t-54.5 120q0 41 28 73.5t79 32.5t76.5 -30.5t25.5 -59.5t-8 -44t-17 -25.5t-17.5 -17.5t-8.5 -14q0 -16 62 -16q96 0 174 85t106 248q35 205 74.5 493t71.5 403h-148l19 62h147z" />
    <glyph glyph-name="agrave" unicode="&#xe0;" 
d="M774 109q0 -72 64 -72q87 0 225 342l49 -12q-29 -63 -100.5 -227.5t-212.5 -164.5q-68 0 -119 56.5t-45 179.5l-6 4q-56 -102 -122 -171t-180 -69t-197 108.5t-83 263.5q0 154 53.5 271t132 199t166.5 126t168 44q156 0 176 -235h5l47 211h180l-174 -719
q-27 -119 -27 -135zM694 668q0 116 -35 187t-87 71t-95 -33t-100 -113.5t-105.5 -250.5t-48.5 -291t34 -161t94 -40t122 57.5t111 147.5t79.5 200t30.5 226zM463 1378q0 26 21.5 47t50 21t49 -16.5t67.5 -75.5l201 -260h-61l-170 129q-43 33 -73 53t-49.5 35.5t-27.5 28
t-8 38.5z" />
    <glyph glyph-name="aacute" unicode="&#xe1;" 
d="M774 109q0 -72 64 -72q87 0 225 342l49 -12q-29 -63 -100.5 -227.5t-212.5 -164.5q-68 0 -119 56.5t-45 179.5l-6 4q-56 -102 -122 -171t-180 -69t-197 108.5t-83 263.5q0 154 53.5 271t132 199t166.5 126t168 44q156 0 176 -235h5l47 211h180l-174 -719
q-27 -119 -27 -135zM694 668q0 116 -35 187t-87 71t-95 -33t-100 -113.5t-105.5 -250.5t-48.5 -291t34 -161t94 -40t122 57.5t111 147.5t79.5 200t30.5 226zM977 1446q21 0 42 -19.5t21 -50.5t-9 -42t-27 -23l-349 -217h-71l284 280q60 65 74 68.5t35 3.5z" />
    <glyph glyph-name="acircumflex" unicode="&#xe2;" 
d="M774 109q0 -72 64 -72q87 0 225 342l49 -12q-29 -63 -100.5 -227.5t-212.5 -164.5q-68 0 -119 56.5t-45 179.5l-6 4q-56 -102 -122 -171t-180 -69t-197 108.5t-83 263.5q0 154 53.5 271t132 199t166.5 126t168 44q156 0 176 -235h5l47 211h180l-174 -719
q-27 -119 -27 -135zM694 668q0 116 -35 187t-87 71t-95 -33t-100 -113.5t-105.5 -250.5t-48.5 -291t34 -161t94 -40t122 57.5t111 147.5t79.5 200t30.5 226zM811 1438l180 -344h-73l-168 213l-283 -213h-78l322 344h100z" />
    <glyph glyph-name="atilde" unicode="&#xe3;" 
d="M774 109q0 -72 64 -72q87 0 225 342l49 -12q-29 -63 -100.5 -227.5t-212.5 -164.5q-68 0 -119 56.5t-45 179.5l-6 4q-56 -102 -122 -171t-180 -69t-197 108.5t-83 263.5q0 154 53.5 271t132 199t166.5 126t168 44q156 0 176 -235h5l47 211h180l-174 -719
q-27 -119 -27 -135zM694 668q0 116 -35 187t-87 71t-95 -33t-100 -113.5t-105.5 -250.5t-48.5 -291t34 -161t94 -40t122 57.5t111 147.5t79.5 200t30.5 226zM621 1360q79 0 141.5 -30t93 -44t70.5 -14t65 19.5t41 72.5h60q-23 -106 -77 -161.5t-114 -55.5t-130.5 32.5
t-109 47t-77.5 14.5q-80 0 -105 -98h-59q47 217 201 217z" />
    <glyph glyph-name="adieresis" unicode="&#xe4;" 
d="M774 109q0 -72 64 -72q87 0 225 342l49 -12q-29 -63 -100.5 -227.5t-212.5 -164.5q-68 0 -119 56.5t-45 179.5l-6 4q-56 -102 -122 -171t-180 -69t-197 108.5t-83 263.5q0 154 53.5 271t132 199t166.5 126t168 44q156 0 176 -235h5l47 211h180l-174 -719
q-27 -119 -27 -135zM694 668q0 116 -35 187t-87 71t-95 -33t-100 -113.5t-105.5 -250.5t-48.5 -291t34 -161t94 -40t122 57.5t111 147.5t79.5 200t30.5 226zM434 1227q0 43 31 71.5t71 28.5t69.5 -29.5t29.5 -69.5t-28.5 -71t-71.5 -31t-72 29t-29 72zM846 1227
q0 43 30.5 71.5t70.5 28.5t70 -29.5t30 -69.5t-29 -71t-72 -31t-71.5 29t-28.5 72z" />
    <glyph glyph-name="aring" unicode="&#xe5;" 
d="M774 109q0 -72 64 -72q87 0 225 342l49 -12q-29 -63 -100.5 -227.5t-212.5 -164.5q-68 0 -119 56.5t-45 179.5l-6 4q-56 -102 -122 -171t-180 -69t-197 108.5t-83 263.5q0 154 53.5 271t132 199t166.5 126t168 44q156 0 176 -235h5l47 211h180l-174 -719
q-27 -119 -27 -135zM694 668q0 116 -35 187t-87 71t-95 -33t-100 -113.5t-105.5 -250.5t-48.5 -291t34 -161t94 -40t122 57.5t111 147.5t79.5 200t30.5 226zM545 1296q0 43 15 80t43 64.5t66 44t100.5 16.5t122.5 -58.5t60 -144.5t-59 -145t-143 -59q-133 0 -169 79.5
t-36 122.5zM618 1297q0 -54 37 -92t91 -38t93.5 38t39.5 92t-39 92t-93 38t-91.5 -38t-37.5 -92z" />
    <glyph glyph-name="ae" unicode="&#xe6;" horiz-adv-x="1478" 
d="M1220.5 987q110.5 0 167 -51.5t56.5 -123.5t-29 -131.5t-147 -148.5t-469 -143q-19 -88 -19 -167q0 -80 47 -132.5t121 -52.5t130.5 29.5t106.5 74.5t93 99.5t80 101.5l43 -43q-53 -63 -161 -193.5t-285 -130.5q-130 0 -199.5 65.5t-85.5 180.5h-4q-37 -72 -130.5 -159
t-212.5 -87q-118 0 -197 111t-79 265q0 155 53.5 272.5t169.5 240.5t292 123q154 0 177 -192h4l31 172h125l-59 -211l4 -4q72 104 169 169.5t207.5 65.5zM223 225q0 -188 129 -188q59 0 119.5 57.5t139.5 204t79 365.5q0 123 -34.5 192.5t-107.5 69.5t-148.5 -110.5
t-126 -276.5t-50.5 -314zM1305 792q0 64 -30 99t-82 35q-110 0 -225 -133.5t-157 -348.5q201 26 304.5 92t146.5 129t43 127z" />
    <glyph glyph-name="ccedilla" unicode="&#xe7;" horiz-adv-x="909" 
d="M817 346q-155 -371 -440 -371l-23 2l-67 -100l4 -4q23 8 51 8q64 0 113 -36.5t49 -110.5t-67.5 -121t-174.5 -47q-55 0 -109.5 13t-82.5 32l34 61q70 -32 130 -32t91 24.5t31 58.5t-24.5 59t-64.5 25t-77 -12l-18 17l113 178q-107 29 -177.5 128t-70.5 244
q0 146 61.5 260.5t151.5 195.5t191.5 125t181.5 44q249 0 249 -205q0 -74 -37.5 -110.5t-78.5 -36.5t-74 26.5t-33 72.5t19.5 66.5t43 31t43 17.5t19.5 24t-38 35t-93 18q-102 0 -181 -74t-131 -178.5t-79 -218t-27 -211.5t40 -152.5t149 -54.5q170 0 250.5 139t103.5 193z
" />
    <glyph glyph-name="egrave" unicode="&#xe8;" horiz-adv-x="909" 
d="M49 386q0 116 59.5 232.5t147.5 198.5t190 126t210 44t166.5 -51.5t58.5 -123.5t-29 -131.5t-147 -148.5t-469 -143q-19 -88 -19 -167q0 -80 46.5 -132.5t120.5 -52.5t130.5 29.5t107 74.5t93.5 99.5t80 101.5l43 -43q-53 -63 -101.5 -121.5t-131.5 -130.5t-220 -72
t-236.5 104.5t-99.5 306.5zM741 792q0 134 -116 134q-104 0 -220.5 -133.5t-156.5 -348.5q202 26 304.5 92t145.5 129t43 127zM395 1378q0 26 21.5 47t50.5 21t49.5 -16.5t67.5 -75.5l200 -260h-61l-170 129q-43 33 -72.5 53t-49 35.5t-28 28t-8.5 38.5z" />
    <glyph glyph-name="eacute" unicode="&#xe9;" horiz-adv-x="909" 
d="M49 386q0 116 59.5 232.5t147.5 198.5t190 126t210 44t166.5 -51.5t58.5 -123.5t-29 -131.5t-147 -148.5t-469 -143q-19 -88 -19 -167q0 -80 46.5 -132.5t120.5 -52.5t130.5 29.5t107 74.5t93.5 99.5t80 101.5l43 -43q-53 -63 -101.5 -121.5t-131.5 -130.5t-220 -72
t-236.5 104.5t-99.5 306.5zM741 792q0 134 -116 134q-104 0 -220.5 -133.5t-156.5 -348.5q202 26 304.5 92t145.5 129t43 127zM910 1446q20 0 41.5 -19.5t21.5 -50.5t-9.5 -42t-27.5 -23l-348 -217h-72l285 280q60 65 74.5 68.5t34.5 3.5z" />
    <glyph glyph-name="ecircumflex" unicode="&#xea;" horiz-adv-x="909" 
d="M49 386q0 116 59.5 232.5t147.5 198.5t190 126t210 44t166.5 -51.5t58.5 -123.5t-29 -131.5t-147 -148.5t-469 -143q-19 -88 -19 -167q0 -80 46.5 -132.5t120.5 -52.5t130.5 29.5t107 74.5t93.5 99.5t80 101.5l43 -43q-53 -63 -101.5 -121.5t-131.5 -130.5t-220 -72
t-236.5 104.5t-99.5 306.5zM741 792q0 134 -116 134q-104 0 -220.5 -133.5t-156.5 -348.5q202 26 304.5 92t145.5 129t43 127zM743 1438l181 -344h-74l-168 213l-283 -213h-77l321 344h100z" />
    <glyph glyph-name="edieresis" unicode="&#xeb;" horiz-adv-x="909" 
d="M49 386q0 116 59.5 232.5t147.5 198.5t190 126t210 44t166.5 -51.5t58.5 -123.5t-29 -131.5t-147 -148.5t-469 -143q-19 -88 -19 -167q0 -80 46.5 -132.5t120.5 -52.5t130.5 29.5t107 74.5t93.5 99.5t80 101.5l43 -43q-53 -63 -101.5 -121.5t-131.5 -130.5t-220 -72
t-236.5 104.5t-99.5 306.5zM741 792q0 134 -116 134q-104 0 -220.5 -133.5t-156.5 -348.5q202 26 304.5 92t145.5 129t43 127zM367 1227q0 43 30.5 71.5t70.5 28.5t69.5 -29.5t29.5 -69.5t-28.5 -71t-71.5 -31t-71.5 29t-28.5 72zM778 1227q0 43 31 71.5t71 28.5t69.5 -29.5
t29.5 -69.5t-28.5 -71t-71.5 -31t-72 29t-29 72z" />
    <glyph glyph-name="igrave" unicode="&#xec;" horiz-adv-x="796" 
d="M422 37q108 0 270 328l49 -21q-118 -257 -210.5 -313t-141.5 -56q-91 0 -145 66t-54 158t34 174t73 157.5t69.5 147.5t30.5 160t-71 88q-91 0 -154 -121t-94 -189l-49 17q67 163 121.5 230t101.5 95.5t98 28.5q90 0 142.5 -72t52.5 -159q0 -86 -31 -176.5t-66.5 -177.5
t-66.5 -161.5t-31 -117.5t15.5 -64.5t56.5 -21.5zM246 1378q0 26 21.5 47t50 21t49 -16.5t67.5 -75.5l201 -260h-62l-170 129q-43 33 -72.5 53t-49 35.5t-27.5 28t-8 38.5z" />
    <glyph glyph-name="iacute" unicode="&#xed;" horiz-adv-x="796" 
d="M422 37q108 0 270 328l49 -21q-118 -257 -210.5 -313t-141.5 -56q-91 0 -145 66t-54 158t34 174t73 157.5t69.5 147.5t30.5 160t-71 88q-91 0 -154 -121t-94 -189l-49 17q67 163 121.5 230t101.5 95.5t98 28.5q90 0 142.5 -72t52.5 -159q0 -86 -31 -176.5t-66.5 -177.5
t-66.5 -161.5t-31 -117.5t15.5 -64.5t56.5 -21.5zM760 1446q21 0 42 -19.5t21 -50.5t-9 -42t-28 -23l-348 -217h-71l284 280q60 65 74 68.5t35 3.5z" />
    <glyph glyph-name="icircumflex" unicode="&#xee;" horiz-adv-x="796" 
d="M422 37q108 0 270 328l49 -21q-118 -257 -210.5 -313t-141.5 -56q-91 0 -145 66t-54 158t34 174t73 157.5t69.5 147.5t30.5 160t-71 88q-91 0 -154 -121t-94 -189l-49 17q67 163 121.5 230t101.5 95.5t98 28.5q90 0 142.5 -72t52.5 -159q0 -86 -31 -176.5t-66.5 -177.5
t-66.5 -161.5t-31 -117.5t15.5 -64.5t56.5 -21.5zM594 1438l180 -344h-74l-168 213l-282 -213h-78l322 344h100z" />
    <glyph glyph-name="idieresis" unicode="&#xef;" horiz-adv-x="796" 
d="M422 37q108 0 270 328l49 -21q-118 -257 -210.5 -313t-141.5 -56q-91 0 -145 66t-54 158t34 174t73 157.5t69.5 147.5t30.5 160t-71 88q-91 0 -154 -121t-94 -189l-49 17q67 163 121.5 230t101.5 95.5t98 28.5q90 0 142.5 -72t52.5 -159q0 -86 -31 -176.5t-66.5 -177.5
t-66.5 -161.5t-31 -117.5t15.5 -64.5t56.5 -21.5zM629 1227q0 43 30.5 71.5t70.5 28.5t69.5 -29.5t29.5 -69.5t-28.5 -71t-71.5 -31t-71.5 29t-28.5 72zM217 1227q0 43 30.5 71.5t70.5 28.5t70 -29.5t30 -69.5t-29 -71t-72 -31t-71.5 29t-28.5 72z" />
    <glyph glyph-name="eth" unicode="&#xf0;" horiz-adv-x="1024" 
d="M946 827q0 -422 -157.5 -637t-403.5 -215q-156 0 -246 120.5t-90 303.5q0 228 165 400t379 172q112 0 195 -80q0 238 -110 348l-209 -127l-55 55l204 125q-82 57 -208 88l32 54q143 -17 265 -88l204 124l56 -55l-195 -119q174 -149 174 -469zM758 709q0 200 -176 200
q-119 0 -203 -120t-127 -272.5t-43 -259.5t47 -163.5t121 -56.5t128 37t110.5 117t99.5 244t43 274z" />
    <glyph glyph-name="ntilde" unicode="&#xf1;" horiz-adv-x="1251" 
d="M926 49q102 0 252 313l47 -20q-78 -166 -160 -266.5t-171 -100.5t-136 62.5t-47 158.5t30.5 182.5t69.5 170.5q37 84 67.5 156.5t30.5 125.5q0 94 -82 95q-92 0 -220 -171t-240 -542l-64 -213h-174l74 287q135 500 135 555q0 84 -62 84q-52 0 -118 -86.5t-117 -223.5
l-53 19q142 352 311 352q80 0 123 -58.5t43 -159.5t-21 -183l5 -4q129 278 229 341.5t158 63.5q111 0 162 -71t51 -158t-30 -174.5t-66 -175.5t-65.5 -163t-29.5 -114q0 -82 68 -82zM653 1360q78 0 141.5 -30t94.5 -44t71 -14t64.5 19.5t40.5 72.5h59q-23 -106 -77 -161.5
t-114 -55.5t-130 32.5t-109 47t-78 14.5q-80 0 -104 -98h-59q47 217 200 217z" />
    <glyph glyph-name="ograve" unicode="&#xf2;" horiz-adv-x="1024" 
d="M573 987q164 0 254.5 -123t90.5 -307q0 -102 -44.5 -206.5t-118 -187.5t-170 -135.5t-189.5 -52.5q-167 0 -257 122.5t-90 308.5q0 231 121 360t216.5 175t186.5 46zM758 721q0 205 -176 205q-119 0 -203 -121.5t-127 -277.5t-43 -264q0 -109 47 -167.5t121 -58.5t128 37
t111 120.5t99.5 249t42.5 277.5zM381 1378q0 26 21.5 47t50 21t49 -16.5t67.5 -75.5l201 -260h-61l-170 129q-43 33 -73 53t-49.5 35.5t-27.5 28t-8 38.5z" />
    <glyph glyph-name="oacute" unicode="&#xf3;" horiz-adv-x="1024" 
d="M573 987q164 0 254.5 -123t90.5 -307q0 -102 -44.5 -206.5t-118 -187.5t-170 -135.5t-189.5 -52.5q-167 0 -257 122.5t-90 308.5q0 231 121 360t216.5 175t186.5 46zM758 721q0 205 -176 205q-119 0 -203 -121.5t-127 -277.5t-43 -264q0 -109 47 -167.5t121 -58.5t128 37
t111 120.5t99.5 249t42.5 277.5zM895 1446q21 0 42 -19.5t21 -50.5t-9 -42t-27 -23l-349 -217h-71l284 280q60 65 74 68.5t35 3.5z" />
    <glyph glyph-name="ocircumflex" unicode="&#xf4;" horiz-adv-x="1024" 
d="M573 987q164 0 254.5 -123t90.5 -307q0 -102 -44.5 -206.5t-118 -187.5t-170 -135.5t-189.5 -52.5q-167 0 -257 122.5t-90 308.5q0 231 121 360t216.5 175t186.5 46zM758 721q0 205 -176 205q-119 0 -203 -121.5t-127 -277.5t-43 -264q0 -109 47 -167.5t121 -58.5t128 37
t111 120.5t99.5 249t42.5 277.5zM729 1438l180 -344h-73l-168 213l-283 -213h-78l322 344h100z" />
    <glyph glyph-name="otilde" unicode="&#xf5;" horiz-adv-x="1024" 
d="M573 987q164 0 254.5 -123t90.5 -307q0 -102 -44.5 -206.5t-118 -187.5t-170 -135.5t-189.5 -52.5q-167 0 -257 122.5t-90 308.5q0 231 121 360t216.5 175t186.5 46zM758 721q0 205 -176 205q-119 0 -203 -121.5t-127 -277.5t-43 -264q0 -109 47 -167.5t121 -58.5t128 37
t111 120.5t99.5 249t42.5 277.5zM539 1360q79 0 141.5 -30t93 -44t70.5 -14t65 19.5t41 72.5h60q-23 -106 -77 -161.5t-114 -55.5t-130.5 32.5t-109 47t-77.5 14.5q-80 0 -105 -98h-59q47 217 201 217z" />
    <glyph glyph-name="odieresis" unicode="&#xf6;" horiz-adv-x="1024" 
d="M573 987q164 0 254.5 -123t90.5 -307q0 -102 -44.5 -206.5t-118 -187.5t-170 -135.5t-189.5 -52.5q-167 0 -257 122.5t-90 308.5q0 231 121 360t216.5 175t186.5 46zM758 721q0 205 -176 205q-119 0 -203 -121.5t-127 -277.5t-43 -264q0 -109 47 -167.5t121 -58.5t128 37
t111 120.5t99.5 249t42.5 277.5zM352 1227q0 43 31 71.5t71 28.5t69.5 -29.5t29.5 -69.5t-28.5 -71t-71.5 -31t-72 29t-29 72zM764 1227q0 43 30.5 71.5t70.5 28.5t70 -29.5t30 -69.5t-29 -71t-72 -31t-71.5 29t-28.5 72z" />
    <glyph glyph-name="divide" unicode="&#xf7;" horiz-adv-x="1228" 
d="M90 426v111h963v-111h-963zM457 90q0 47 33.5 81t80.5 34t81 -34t34 -81t-34 -81t-81 -34t-80.5 34t-33.5 81zM457 872.5q0 47.5 33.5 81t80.5 33.5t81 -33.5t34 -81t-34 -81t-81 -33.5t-80.5 33.5t-33.5 81z" />
    <glyph glyph-name="oslash" unicode="&#xf8;" horiz-adv-x="1024" 
d="M184 49q-135 121 -135 354q0 234 121 363t215.5 175t184.5 46t151 -33l123 205h82l-146 -244q138 -120 138 -358q0 -102 -44.5 -206.5t-118 -187.5t-170 -135.5t-188.5 -52.5t-151 35l-123 -207h-86zM385.5 37q65.5 0 119.5 37t111 120.5t99.5 249t42.5 257.5t-23 137
l-452 -766q37 -35 102.5 -35zM580 926q-64 0 -116 -37t-110.5 -121.5t-101.5 -240.5t-43 -249q0 -94 24 -145l453 762q-42 31 -106 31z" />
    <glyph glyph-name="ugrave" unicode="&#xf9;" horiz-adv-x="1251" 
d="M723 141q0 69 18 168l-4 4q-98 -212 -191 -275t-179 -63t-144.5 63t-58.5 151t32.5 177t71.5 179q41 90 73 166.5t32 119.5q0 95 -69 95t-125 -75t-122 -235l-51 25q59 160 130 253t172 93t152.5 -66t52.5 -152q1 -87 -27.5 -176t-62.5 -177t-62.5 -164t-28.5 -139.5
t87.5 -63.5t200 166.5t162.5 333.5l119 414h180l-163 -564q-68 -232 -68 -271q0 -40 12 -59.5t63 -19.5t102 76t130 246l47 -27q-97 -194 -159.5 -281.5t-167.5 -87.5q-68 0 -111 48.5t-43 117.5zM496 1378q0 26 21.5 47t50 21t49 -16.5t67.5 -75.5l201 -260h-62l-170 129
q-43 33 -72.5 53t-49 35.5t-27.5 28t-8 38.5z" />
    <glyph glyph-name="uacute" unicode="&#xfa;" horiz-adv-x="1251" 
d="M723 141q0 69 18 168l-4 4q-98 -212 -191 -275t-179 -63t-144.5 63t-58.5 151t32.5 177t71.5 179q41 90 73 166.5t32 119.5q0 95 -69 95t-125 -75t-122 -235l-51 25q59 160 130 253t172 93t152.5 -66t52.5 -152q1 -87 -27.5 -176t-62.5 -177t-62.5 -164t-28.5 -139.5
t87.5 -63.5t200 166.5t162.5 333.5l119 414h180l-163 -564q-68 -232 -68 -271q0 -40 12 -59.5t63 -19.5t102 76t130 246l47 -27q-97 -194 -159.5 -281.5t-167.5 -87.5q-68 0 -111 48.5t-43 117.5zM1010 1446q20 0 41.5 -19.5t21.5 -50.5t-9 -42t-28 -23l-348 -217h-72
l285 280q60 65 74.5 68.5t34.5 3.5z" />
    <glyph glyph-name="ucircumflex" unicode="&#xfb;" horiz-adv-x="1251" 
d="M723 141q0 69 18 168l-4 4q-98 -212 -191 -275t-179 -63t-144.5 63t-58.5 151t32.5 177t71.5 179q41 90 73 166.5t32 119.5q0 95 -69 95t-125 -75t-122 -235l-51 25q59 160 130 253t172 93t152.5 -66t52.5 -152q1 -87 -27.5 -176t-62.5 -177t-62.5 -164t-28.5 -139.5
t87.5 -63.5t200 166.5t162.5 333.5l119 414h180l-163 -564q-68 -232 -68 -271q0 -40 12 -59.5t63 -19.5t102 76t130 246l47 -27q-97 -194 -159.5 -281.5t-167.5 -87.5q-68 0 -111 48.5t-43 117.5zM844 1438l180 -344h-74l-168 213l-282 -213h-78l321 344h101z" />
    <glyph glyph-name="udieresis" unicode="&#xfc;" horiz-adv-x="1251" 
d="M723 141q0 69 18 168l-4 4q-98 -212 -191 -275t-179 -63t-144.5 63t-58.5 151t32.5 177t71.5 179q41 90 73 166.5t32 119.5q0 95 -69 95t-125 -75t-122 -235l-51 25q59 160 130 253t172 93t152.5 -66t52.5 -152q1 -87 -27.5 -176t-62.5 -177t-62.5 -164t-28.5 -139.5
t87.5 -63.5t200 166.5t162.5 333.5l119 414h180l-163 -564q-68 -232 -68 -271q0 -40 12 -59.5t63 -19.5t102 76t130 246l47 -27q-97 -194 -159.5 -281.5t-167.5 -87.5q-68 0 -111 48.5t-43 117.5zM879 1227q0 43 30.5 71.5t70.5 28.5t69.5 -29.5t29.5 -69.5t-28.5 -71
t-71.5 -31t-71.5 29t-28.5 72zM467 1227q0 43 30.5 71.5t70.5 28.5t70 -29.5t30 -69.5t-29 -71t-72 -31t-71.5 29t-28.5 72z" />
    <glyph glyph-name="yacute" unicode="&#xfd;" 
d="M344 137q0 -88 97 -88t220 169t168 345l109 400h176l-256 -916q-62 -211 -189 -323.5t-366 -112.5q-113 0 -200 52t-87 124q0 47 29 79t72 32t71.5 -26t28.5 -68t-19.5 -67.5t-19.5 -41.5q0 -23 86 -23t153.5 20.5t150 106t149.5 396.5l-4 4q-42 -81 -132 -152.5
t-186 -71.5t-153.5 62.5t-57.5 162.5t34 184.5t75 162.5q104 208 104 293t-71 86q-70 0 -121 -76t-127 -234l-55 19q33 70 102 211t223 141q89 0 139 -71.5t50 -154.5t-31 -173t-67 -180t-65.5 -163t-29.5 -108zM977 1446q21 0 42 -19.5t21 -50.5t-9 -42t-27 -23l-349 -217
h-71l284 280q60 65 74 68.5t35 3.5z" />
    <glyph glyph-name="thorn" unicode="&#xfe;" 
d="M426 1264q0 30 -27.5 43.5t-119.5 15.5l12 53l350 8l-186 -684l4 -4q72 196 159 243.5t177 47.5t175 -113.5t85 -291.5q0 -109 -47 -217.5t-122 -194.5t-167 -140.5t-181 -54.5t-139.5 57.5t-54.5 147.5h-4q-35 -160 -62.5 -263t-27.5 -142t9.5 -58.5t162.5 -19.5
l-12 -62h-570l10 62q72 2 113 10t66.5 34t42 77t39.5 143l276 1135q16 70 27.5 104t11.5 64zM393 254q0 -217 139 -217q109 0 204 150.5t119 319.5t24 212q0 111 -31.5 159t-97.5 48t-127.5 -69t-112.5 -170t-84 -219t-33 -214z" />
    <glyph glyph-name="ydieresis" unicode="&#xff;" 
d="M344 137q0 -88 97 -88t220 169t168 345l109 400h176l-256 -916q-62 -211 -189 -323.5t-366 -112.5q-113 0 -200 52t-87 124q0 47 29 79t72 32t71.5 -26t28.5 -68t-19.5 -67.5t-19.5 -41.5q0 -23 86 -23t153.5 20.5t150 106t149.5 396.5l-4 4q-42 -81 -132 -152.5
t-186 -71.5t-153.5 62.5t-57.5 162.5t34 184.5t75 162.5q104 208 104 293t-71 86q-70 0 -121 -76t-127 -234l-55 19q33 70 102 211t223 141q89 0 139 -71.5t50 -154.5t-31 -173t-67 -180t-65.5 -163t-29.5 -108zM846 1227q0 43 30.5 71.5t70.5 28.5t70 -29.5t30 -69.5
t-29 -71t-72 -31t-71.5 29t-28.5 72zM434 1227q0 43 31 71.5t71 28.5t69.5 -29.5t29.5 -69.5t-28.5 -71t-71.5 -31t-72 29t-29 72z" />
    <glyph glyph-name="dotlessi" unicode="&#x131;" horiz-adv-x="796" 
d="M422 37q108 0 270 328l49 -21q-118 -257 -210.5 -313t-141.5 -56q-91 0 -145 66t-54 158t34 174t73 157.5t69.5 147.5t30.5 160t-71 88q-91 0 -154 -121t-94 -189l-49 17q67 163 121.5 230t101.5 95.5t98 28.5q90 0 142.5 -72t52.5 -159q0 -86 -31 -176.5t-66.5 -177.5
t-66.5 -161.5t-31 -117.5t15.5 -64.5t56.5 -21.5z" />
    <glyph glyph-name="Lslash" unicode="&#x141;" horiz-adv-x="1251" 
d="M375 162q0 -101 130 -101q249 0 396 110.5t240 350.5l63 -6l-147 -516h-1147l14 61q127 4 167 23.5t52.5 39t20.5 48.5l115 432l-207 -78l6 82l225 84l109 406q30 117 30 152t-5 51t-33.5 31.5t-137.5 15.5l15 61h616l-10 -61q-133 0 -169 -25t-52.5 -59.5t-30.5 -92.5
l-105 -393l359 133l-6 -82l-375 -141l-96 -360q-37 -136 -37 -166z" />
    <glyph glyph-name="lslash" unicode="&#x142;" horiz-adv-x="569" 
d="M81 31.5q-52 56.5 -52 135.5t30 193l95 345l-140 -60l-4 62l162 69l94 354q8 29 18.5 64.5t10.5 67.5t-29.5 45.5t-113.5 15.5l12 53l354 8l-139 -518l137 60l4 -62l-160 -69l-135 -504q-37 -111 -37 -183t64 -71q64 0 124 94t86.5 147.5t41.5 79.5l47 -24
q-25 -43 -101 -201t-235 -158q-82 0 -134 56.5z" />
    <glyph glyph-name="OE" unicode="&#x152;" horiz-adv-x="1933" 
d="M1552 1348q-182 0 -219 -142l-104 -420q138 0 203.5 49.5t113.5 192.5h68l-139 -569h-58q0 163 -31.5 200t-71.5 45.5t-104 8.5l-71 -287q-16 -68 -42 -162t-26 -132t31 -54.5t110 -16.5q182 0 311.5 114t221.5 349l63 -8l-147 -516h-1028q-273 0 -414 168t-141 432
q0 180 69.5 329.5t255.5 314.5t568 165h1034l-121 -500h-61l4 107q0 332 -275 332zM1112 1194q0 141 -236 141q-213 0 -349.5 -162t-198.5 -384.5t-62 -389.5q0 -168 91.5 -246.5t235.5 -78.5t210.5 53t87.5 131l186 750q35 150 35 186z" />
    <glyph glyph-name="oe" unicode="&#x153;" horiz-adv-x="1593" 
d="M1051 -25q-86 0 -167 51.5t-122 147.5q-74 -88 -166 -143.5t-225 -55.5t-227.5 119.5t-94.5 268.5q0 276 163 450t370 174q111 0 185.5 -61.5t109.5 -159.5q140 158 262.5 189.5t171.5 31.5q129 0 187 -51.5t58 -123.5t-28.5 -131.5t-147 -149t-469.5 -142.5
q-18 -83 -18 -165t46.5 -134.5t120.5 -52.5t130.5 29.5t107 74.5t93.5 99.5t79 101.5l43 -43q-53 -63 -101 -121.5t-100 -103.5t-113.5 -72t-147.5 -27zM758 721q0 205 -176 205t-260 -208.5t-98.5 -316.5t-14.5 -151q0 -109 49 -161t121 -52t126 37t111 120.5t99.5 249
t42.5 277.5zM1417 792q0 134 -117 134q-103 0 -219.5 -133.5t-156.5 -348.5q202 26 304.5 92t145.5 129t43 127z" />
    <glyph glyph-name="Scaron" unicode="&#x160;" 
d="M143 514v-123q0 -190 90 -272t236 -82t254 76t108 227q0 80 -46 133t-114.5 94t-148.5 78t-148.5 83t-114.5 107.5t-46 204t143 268.5t371 126q186 0 253 -65.5t78 -65.5t22.5 14t22.5 32.5t19 36t13 23.5h65l-123 -512h-57v115q0 174 -76 267t-242 93q-116 0 -202 -70
t-86 -190q0 -76 46 -127t114.5 -92t148.5 -79t194.5 -121.5t114.5 -254.5q0 -199 -160 -331t-377 -132t-297 60.5t-94 60.5q-19 0 -50 -40.5t-36 -55.5h-69l137 514h57zM754 1466l-197 344h76l184 -215l293 215h72l-334 -344h-94z" />
    <glyph glyph-name="scaron" unicode="&#x161;" horiz-adv-x="909" 
d="M636 69.5q-130 -94.5 -291 -94.5t-252 73.5t-91 168.5q0 51 30 87t84 36t82.5 -27.5t28.5 -71.5t-14 -64.5t-31.5 -32t-32 -17.5t-14.5 -16q0 -21 56 -47.5t125 -26.5q135 0 212.5 56.5t77.5 134.5t-83 124.5t-140 75.5t-140 89t-83 188t110.5 205t262.5 77t229.5 -55.5
t77.5 -117.5t-35 -91t-76 -29t-69.5 25.5t-28.5 57.5t9 46.5t21.5 24.5t21.5 18t9 18q0 17 -47 29.5t-120 12.5q-72 0 -139 -46t-67 -106t33 -95.5t83 -63t107.5 -53t140.5 -82t83 -186.5t-130 -224.5zM545 1094l-197 344h76l184 -215l293 215h72l-334 -344h-94z" />
    <glyph glyph-name="Ydieresis" unicode="&#x178;" horiz-adv-x="1251" 
d="M543 1260q0 -34 8 -58t14 -51l117 -463l354 424q8 12 24.5 29.5t43 54.5t26.5 77t-29.5 57.5t-119.5 17.5l10 61h465l-12 -61q-68 -8 -119 -43t-111 -107l-505 -608l-80 -291q-29 -102 -29 -148.5t34.5 -66t147.5 -23.5l-16 -61h-610l12 61q120 8 157 31t51.5 48.5
t24.5 64.5l99 389l-166 684q-9 38 -38.5 54t-105.5 16l9 61h540l-12 -61q-86 6 -135 -24t-49 -64zM997 1600q0 43 31 71.5t71 28.5t69.5 -30t29.5 -70t-28.5 -70.5t-71.5 -30.5t-72 29t-29 72zM586 1600q0 43 30.5 71.5t70.5 28.5t69.5 -30t29.5 -70t-28.5 -70.5
t-71.5 -30.5t-71.5 29t-28.5 72z" />
    <glyph glyph-name="Zcaron" unicode="&#x17d;" horiz-adv-x="1251" 
d="M930 1335q-254 0 -351.5 -73.5t-149.5 -154.5t-105 -198h-62l139 500h930l-10 -37l-1055 -1298h68q311 0 436 75.5t188.5 158.5t118.5 202h60l-150 -510h-1007l10 45l1052 1290h-112zM811 1466l-197 344h76l184 -215l293 215h72l-334 -344h-94z" />
    <glyph glyph-name="zcaron" unicode="&#x17e;" horiz-adv-x="1024" 
d="M304 827q-67 0 -150 -202l-52 12q41 135 143 242.5t220 107.5q66 0 111 -31.5t79.5 -70.5t65.5 -71t69 -32t58 24.5t20 44.5t-10 37t-10 44q0 55 66 55t65 -94q0 -94 -109.5 -206t-364.5 -240t-413 -240l4 -4q95 51 179 51q83 0 131.5 -15.5t91.5 -34.5t84 -35.5
t84 -16.5q74 0 115 61.5t77 165.5l60 -6q-40 -168 -142 -283t-225 -115q-78 0 -131 32t-94 71t-76 70.5t-76 31.5q-72 0 -72 -39q0 -10 3.5 -17t10.5 -22t7 -43q0 -29 -19.5 -48t-49.5 -19t-50 22.5t-20 65.5q0 74 96 167t215 165.5t233.5 134t205.5 114t124 97.5l-4 4
q-72 -41 -159 -41q-88 0 -135.5 16.5t-86.5 37t-70.5 36.5t-98.5 16zM602 1094l-196 344h75l185 -215l292 215h72l-334 -344h-94z" />
    <glyph glyph-name="florin" unicode="&#x192;" 
d="M-62.5 -348q-48.5 41 -48.5 98t36.5 100.5t97.5 43.5q29 0 56 -23t27 -57t-11 -55t-25.5 -35.5t-25.5 -22.5t-11 -14q0 -15 42 -15t110 36.5t143 400.5l145 686h-223l18 61h217q88 466 234.5 522t234.5 56t133.5 -45t45.5 -105t-40.5 -96.5t-88.5 -36.5q-96 0 -97 90
q0 59 38 82t38 29t-15.5 13t-49.5 7q-74 0 -127 -105.5t-119 -410.5h243l-16 -61h-242l-170 -746q-59 -251 -180 -344.5t-259 -93.5q-62 0 -110.5 41z" />
    <glyph glyph-name="circumflex" unicode="&#x2c6;" horiz-adv-x="720" 
d="M602 1438l180 -344h-73l-168 213l-283 -213h-78l322 344h100z" />
    <glyph glyph-name="caron" unicode="&#x2c7;" horiz-adv-x="720" 
d="M451 1094l-197 344h76l184 -215l293 215h72l-334 -344h-94z" />
    <glyph glyph-name="breve" unicode="&#x2d8;" horiz-adv-x="720" 
d="M514.5 1094q-147.5 0 -208 81.5t-60.5 241.5h57q4 -100 63.5 -152.5t160.5 -52.5t171 57.5t105 147.5h59q-29 -141 -114.5 -232t-233 -91z" />
    <glyph glyph-name="dotaccent" unicode="&#x2d9;" horiz-adv-x="720" 
d="M426 1227q0 43 30.5 71.5t70.5 28.5t70 -29.5t30 -69.5t-29 -71t-72 -31t-71.5 29t-28.5 72z" />
    <glyph glyph-name="ring" unicode="&#x2da;" horiz-adv-x="720" 
d="M336 1296q0 43 15.5 80t43 64.5t65.5 44t100.5 16.5t122.5 -58.5t60 -144.5t-59 -145t-143 -59q-133 0 -169 79.5t-36 122.5zM410 1297q0 -54 37 -92t91 -38t93 38t39 92t-39 92t-93 38t-91 -38t-37 -92z" />
    <glyph glyph-name="ogonek" unicode="&#x2db;" horiz-adv-x="720" 
d="M96 -266q0 -39 27 -60.5t75 -21.5t108.5 29.5t111.5 58.5l28 -53q-80 -45 -158.5 -83t-155.5 -38t-130 39t-53 100q0 152 132 214.5t219 83t153 34.5v-19q-180 -55 -268.5 -128.5t-88.5 -155.5z" />
    <glyph glyph-name="tilde" unicode="&#x2dc;" horiz-adv-x="720" 
d="M412 1360q79 0 141.5 -30t93.5 -44t71 -14t64.5 19.5t40.5 72.5h60q-23 -106 -77 -161.5t-114 -55.5t-130 32.5t-109 47t-78 14.5q-80 0 -105 -98h-59q47 217 201 217z" />
    <glyph glyph-name="hungarumlaut" unicode="&#x2dd;" horiz-adv-x="720" 
d="M916 1446q20 0 41.5 -19.5t21.5 -50.5t-9 -42t-28 -23l-348 -217h-72l285 280q60 65 74.5 68.5t34.5 3.5zM530.5 1446q28.5 0 50 -21t21.5 -47t-8 -38.5t-27.5 -28t-49.5 -36t-73 -52.5l-170 -129h-61l201 260q47 59 67.5 75.5t49 16.5z" />
    <glyph glyph-name="endash" unicode="&#x2013;" horiz-adv-x="1024" 
d="M-18 537h1048l-24 -111h-1049z" />
    <glyph glyph-name="emdash" unicode="&#x2014;" horiz-adv-x="2048" 
d="M-18 537h2072l-24 -111h-2073z" />
    <glyph glyph-name="quoteleft" unicode="&#x2018;" horiz-adv-x="454" 
d="M315 1169q0 -16 21.5 -24t68 -31.5t46.5 -83.5q0 -61 -34 -99t-87 -38t-93 42.5t-40 112.5q0 201 233 410l49 -49q-164 -176 -164 -240z" />
    <glyph glyph-name="quoteright" unicode="&#x2019;" horiz-adv-x="454" 
d="M377 1157q0 16 -21.5 24.5t-67.5 31t-46 84.5q0 61 31 99t87 38t96 -42t40 -112q0 -202 -234 -412l-49 50q164 176 164 239z" />
    <glyph glyph-name="quotesinglbase" unicode="&#x201a;" horiz-adv-x="454" 
d="M129 -47q0 16 -21.5 24.5t-67.5 31t-46 83.5t31 99t87 38t96 -42.5t40 -112.5q0 -201 -234 -410l-49 49q164 176 164 240z" />
    <glyph glyph-name="quotedblleft" unicode="&#x201c;" horiz-adv-x="796" 
d="M719 1169q0 -16 21.5 -24t67.5 -31.5t46 -83.5q0 -61 -31 -99t-87 -38t-96 42.5t-40 112.5q0 200 234 410l49 -49q-164 -176 -164 -240zM301 1169q0 -16 21.5 -24t67.5 -31.5t46 -83.5q0 -61 -31 -99t-87 -38t-96 42.5t-40 112.5q0 200 234 410l49 -49
q-164 -176 -164 -240z" />
    <glyph glyph-name="quotedblright" unicode="&#x201d;" horiz-adv-x="796" 
d="M356 1157q0 16 -21.5 24.5t-67.5 31t-46 84.5q0 61 31 99t87 38t96 -42t40 -112q0 -202 -233 -412l-49 50q163 175 163 239zM774 1157q0 16 -21.5 24.5t-67.5 31t-46 84.5q0 61 30.5 99t86.5 38t96.5 -42t40.5 -112q0 -202 -234 -412l-49 50q164 176 164 239z" />
    <glyph glyph-name="quotedblbase" unicode="&#x201e;" horiz-adv-x="796" 
d="M84 -47q0 16 -21.5 24.5t-67.5 31t-46 83.5t30.5 99t86.5 38t96.5 -42.5t40.5 -112.5q0 -201 -234 -410l-49 49q164 176 164 240zM502 -47q0 16 -21.5 24.5t-67.5 31t-46 83.5t30.5 99t86.5 38t96.5 -42.5t40.5 -112.5q0 -201 -234 -410l-49 49q164 176 164 240z" />
    <glyph glyph-name="dagger" unicode="&#x2020;" horiz-adv-x="1024" 
d="M618 942q-30 -100 -30 -180t26 -162q-71 -86 -128.5 -254t-69.5 -213l-109 -387h-45l66 250q84 336 84 468t-2 146q55 53 100 141.5t65 190.5q-101 0 -152.5 -22.5t-75 -32.5t-58.5 -10t-57.5 23.5t-22.5 61.5t28.5 58t63.5 20t57.5 -9t70 -30.5t157.5 -21.5q6 38 18 82
t12 94l-12 162q0 51 31 84t72 33t63.5 -22.5t22.5 -63.5t-21.5 -77t-73.5 -112t-69 -180q100 0 153.5 21.5t78 30.5t52.5 9q93 0 93 -71q0 -33 -26 -62.5t-65 -29.5t-63.5 10t-76 32.5t-157.5 22.5z" />
    <glyph glyph-name="daggerdbl" unicode="&#x2021;" horiz-adv-x="1024" 
d="M913 1040q93 0 93 -71q0 -33 -26 -62.5t-65 -29.5t-63.5 10t-76 32.5t-157.5 22.5q-28 -132 -28 -196t24 -146q-55 -53 -100 -141t-65 -191q97 0 150.5 22.5t77 33t58.5 10.5t57.5 -23.5t22.5 -61.5t-28.5 -58.5t-63.5 -20.5t-57.5 9t-70 30.5t-157.5 21.5
q-4 -29 -17 -70t-13 -106l12 -161q0 -51 -31 -84t-72 -33t-63.5 22.5t-22.5 63.5t20.5 76.5t73.5 113t70 178.5q-100 0 -153.5 -21.5t-78 -30.5t-52.5 -9q-93 0 -93 72q0 33 26 62.5t65 29.5t63.5 -10.5t78 -33t155.5 -22.5q28 109 28 185q0 75 -24 157q55 53 100 141.5
t65 190.5q-101 0 -152.5 -22.5t-75 -32.5t-58.5 -10t-57.5 23.5t-22.5 61.5t28.5 58t63.5 20t57.5 -9t70 -30.5t157.5 -21.5q6 38 18 82t12 94l-12 162q0 51 31 84t72 33t63.5 -22.5t22.5 -63.5t-21.5 -77t-73.5 -112t-69 -180q100 0 153.5 21.5t78 30.5t52.5 9z" />
    <glyph glyph-name="bullet" unicode="&#x2022;" horiz-adv-x="1024" 
d="M856 704.5q0 -73.5 -27.5 -137t-75.5 -111.5t-111.5 -76t-137.5 -28t-138.5 28t-111.5 75t-74.5 111.5t-27.5 138t26.5 137t73.5 111.5t112.5 76t139.5 28t137.5 -28t111.5 -76t75.5 -111.5t27.5 -137z" />
    <glyph glyph-name="ellipsis" unicode="&#x2026;" horiz-adv-x="2048" 
d="M106 101q0 50 35 83t83 33t84 -33.5t36 -81.5t-35 -81t-85 -33t-84 31.5t-34 81.5zM788 101q0 50 35 83t83 33t84 -33.5t36 -81.5t-35 -81t-85 -33t-84 31.5t-34 81.5zM1470 101q0 50 35 83t83 33t84 -33.5t36 -81.5t-35 -81t-85 -33t-84 31.5t-34 81.5z" />
    <glyph glyph-name="perthousand" unicode="&#x2030;" horiz-adv-x="1933" 
d="M271 596q-85 0 -140 71.5t-55 193.5t34.5 219.5t89 170t121 115.5t141.5 43t131 -74.5t56 -239.5t-109.5 -332t-268.5 -167zM694 266q0 122 35 219t89 169.5t121 115.5t141 43t131 -74.5t57 -238.5t-110 -332t-268 -168q-85 0 -140.5 72t-55.5 194zM1317 266
q0 122 34.5 219t89 169.5t121 115.5t141.5 43t131 -74.5t56 -239.5t-109.5 -332t-267.5 -167q-85 0 -140.5 72t-55.5 194zM186 803q0 -154 90 -154q97 0 180 193.5t83 374.5q0 68 -23.5 103.5t-61.5 35.5t-72 -29t-76.5 -97.5t-81 -203t-38.5 -223.5zM1427 207
q0 -154 91 -154q96 0 179 193.5t83 374.5q0 68 -23.5 103.5t-61.5 35.5t-72 -29t-77 -98t-81 -203.5t-38 -222.5zM805 207q0 -154 90 -154q96 0 179 193.5t83 374.5q0 68 -23.5 103.5t-61.5 35.5t-71.5 -29t-76.5 -97.5t-81 -201.5t-38 -225zM1028 1434h84l-786 -1459h-84z
" />
    <glyph glyph-name="guilsinglleft" unicode="&#x2039;" horiz-adv-x="681" 
d="M542 852q16 0 15 -14q0 -32 -126 -163.5t-154.5 -161.5t-40.5 -42q36 -77 100.5 -200.5t64.5 -141.5t-24 -18q-8 0 -33 34.5t-96 134t-158 189.5v25q156 111 296 234.5t156 123.5z" />
    <glyph glyph-name="guilsinglright" unicode="&#x203a;" horiz-adv-x="681" 
d="M102 111q-16 0 -16 14q0 34 154.5 194t167.5 173q-45 94 -105.5 208t-60.5 133q0 18 24 19q8 0 33 -35t97.5 -135.5t156.5 -187.5v-25q-178 -131 -306.5 -244.5t-144.5 -113.5z" />
    <glyph glyph-name="fraction" unicode="&#x2044;" horiz-adv-x="342" 
d="M-229 -25h-113l913 1459h113z" />
    <glyph glyph-name="fraction" unicode="&#x2215;" horiz-adv-x="342" 
d="M-229 -25h-113l913 1459h113z" />
    <glyph glyph-name="Euro" unicode="&#x20ac;" 
d="M1137 1331q39 0 75 66h56l-101 -402h-55q2 9 2 19v20q0 206 -81 268t-149 62q-130 0 -247.5 -144t-200.5 -382h535l-31 -70h-524q-20 -66 -33 -139h491l-32 -70h-471q-15 -122 -15 -192q0 -322 234 -322q139 0 258 115t166 270h61q-61 -205 -204.5 -330t-330.5 -125
t-281.5 134.5t-94.5 347.5q0 49 6 102h-115l33 70h92q7 41 35 139h-117l31 70h111q93 246 272 421t369 175q143 0 193 -51.5t63 -51.5z" />
    <glyph glyph-name="trademark" unicode="&#x2122;" horiz-adv-x="2027" 
d="M1143 1212v-458q0 -70 23.5 -97.5t86.5 -33.5v-41h-266v41q63 6 87 33.5t24 97.5v510q-18 47 -58.5 74.5t-85.5 27.5v43h236l321 -645l336 645h201v-43q-68 -4 -93.5 -33.5t-25.5 -83.5v-547q2 -43 19.5 -58t85.5 -21v-41h-334v41q68 6 85 21t17 58v517h-4l-317 -637h-19
l-311 630h-8zM348 582v41q68 6 85.5 21t17.5 58v666h-99q-55 0 -89 -28.5t-58 -114.5h-37v184h694v-184h-37q-25 86 -58.5 114.5t-88.5 28.5h-100v-666q0 -43 17 -58t85 -21v-41h-332z" />
    <glyph glyph-name="minus" unicode="&#x2212;" horiz-adv-x="1228" 
d="M90 426v111h963v-111h-963z" />
    <glyph glyph-name="fi" unicode="&#xfb01;" 
d="M856 37q108 0 270 328l50 -21q-118 -256 -211 -312.5t-142 -56.5q-90 0 -144 64t-54 146t41 236t53 206l72 274h-388q-14 -84 -30.5 -185.5t-63.5 -370.5t-151 -451t-214 -232.5t-168 -50.5q-97 0 -153.5 46t-56.5 114q0 39 29.5 73.5t79.5 34.5t75 -25.5t25 -57.5
t-8.5 -49t-17.5 -26.5t-17 -15.5t-8 -15q0 -18 64 -18q119 0 186.5 105t91.5 243t62.5 408t59.5 348l35 125h-182l14 62h193q64 182 227 314t342 132q111 0 164 -36t53 -84t-25.5 -78.5t-68.5 -30.5t-68.5 24.5t-25.5 66.5t24 60q-17 17 -78 17q-137 0 -244.5 -98
t-133.5 -287h575l-153 -596q-14 -53 -33 -120t-19 -116t15.5 -71.5t56.5 -22.5z" />
    <glyph glyph-name="fl" unicode="&#xfb02;" 
d="M852 37q91 0 165.5 147.5t88.5 173.5l47 -24q-25 -43 -101 -201t-235 -158q-82 0 -134 56.5t-52 137.5t31 191l143 541h-383l-68 -407q-72 -427 -208 -655t-363 -228q-125 0 -160 61.5t-35 99.5t30 72.5t80 34.5t74.5 -25.5t24.5 -57.5t-8 -49t-17.5 -26.5t-17.5 -15.5
t-8 -14q0 -19 64 -19q118 0 187.5 106t92.5 243q22 137 60 402.5t61 352.5l35 125h-183l15 62h192q63 180 226.5 313t343.5 133q83 0 127 -29l153 4l-293 -1093q-36 -108 -36 -181t61 -73zM858 1260q0 40 25 63q-4 10 -22.5 17.5t-37.5 7.5q-137 0 -244.5 -96.5
t-148.5 -288.5h391l64 237q-27 20 -27 60z" />
    <glyph glyph-name="nonbreakingspace" horiz-adv-x="569" 
 />
    </font>
</defs>
</svg>
